mtllib CatHead.mtl
o empty_2
usemtl material6
v 144.20472717285156 154.10760498046875 39.48356628417969
v 135.2128448486328 157.8068084716797 47.30033874511719
v 131.3116455078125 155.95228576660156 62.26954650878906
v 150.80532836914062 151.9297637939453 21.310667037963867
v 135.2128448486328 157.8068084716797 47.30033874511719
v 144.20472717285156 154.10760498046875 39.48356628417969
v 150.80532836914062 151.9297637939453 21.310667037963867
v 133.89686584472656 151.19305419921875 21.50604248046875
v 135.2128448486328 157.8068084716797 47.30033874511719
v 133.89686584472656 151.19305419921875 21.50604248046875
v 130.13906860351562 152.36557006835938 30.315038681030273
v 135.2128448486328 157.8068084716797 47.30033874511719
v 131.3116455078125 155.95228576660156 62.26954650878906
v 135.2128448486328 157.8068084716797 47.30033874511719
v 130.13906860351562 152.36557006835938 30.315038681030273
v 161.9578094482422 151.64439392089844 28.873029708862305
v 150.80532836914062 151.9297637939453 21.310667037963867
v 144.20472717285156 154.10760498046875 39.48356628417969
v 129.35479736328125 150.21920776367188 60.068546295166016
v 131.3116455078125 155.95228576660156 62.26954650878906
v 125.9496078491211 146.4427490234375 33.96359634399414
v 144.20472717285156 154.10760498046875 39.48356628417969
v 161.1053466796875 151.337158203125 35.94969177246094
v 161.9578094482422 151.64439392089844 28.873029708862305
v 125.9496078491211 146.4427490234375 33.96359634399414
v 131.3116455078125 155.95228576660156 62.26954650878906
v 130.13906860351562 152.36557006835938 30.315038681030273
v 161.1053466796875 151.337158203125 35.94969177246094
v 144.20472717285156 154.10760498046875 39.48356628417969
v 154.06210327148438 147.39878845214844 47.79371643066406
v 129.35479736328125 150.21920776367188 60.068546295166016
v 132.16128540039062 153.61929321289062 64.71089935302734
v 131.3116455078125 155.95228576660156 62.26954650878906
v 131.3116455078125 155.95228576660156 62.26954650878906
v 143.18930053710938 141.51890563964844 53.33183670043945
v 144.20472717285156 154.10760498046875 39.48356628417969
v 158.95721435546875 147.29638671875 19.676206588745117
v 150.80532836914062 151.9297637939453 21.310667037963867
v 161.9578094482422 151.64439392089844 28.873029708862305
v 161.1053466796875 151.337158203125 35.94969177246094
v 167.06655883789062 141.06309509277344 35.08641815185547
v 161.9578094482422 151.64439392089844 28.873029708862305
v 133.89686584472656 151.19305419921875 21.50604248046875
v 125.9496078491211 146.4427490234375 33.96359634399414
v 130.13906860351562 152.36557006835938 30.315038681030273
v 141.60609436035156 142.1294708251953 9.607660293579102
v 133.89686584472656 151.19305419921875 21.50604248046875
v 150.80532836914062 151.9297637939453 21.310667037963867
v 141.60609436035156 142.1294708251953 9.607660293579102
v 150.80532836914062 151.9297637939453 21.310667037963867
v 152.69618225097656 140.72584533691406 11.895764350891113
v 129.35479736328125 150.21920776367188 60.068546295166016
v 132.52578735351562 145.2882537841797 61.557594299316406
v 132.16128540039062 153.61929321289062 64.71089935302734
v 125.9496078491211 146.4427490234375 33.96359634399414
v 133.89686584472656 151.19305419921875 21.50604248046875
v 126.80592346191406 140.9291229248047 22.328800201416016
v 150.80532836914062 151.9297637939453 21.310667037963867
v 158.95721435546875 147.29638671875 19.676206588745117
v 152.69618225097656 140.72584533691406 11.895764350891113
v 131.3116455078125 155.95228576660156 62.26954650878906
v 132.16128540039062 153.61929321289062 64.71089935302734
v 142.13833618164062 136.740234375 55.22562789916992
v 154.06210327148438 147.39878845214844 47.79371643066406
v 144.20472717285156 154.10760498046875 39.48356628417969
v 143.18930053710938 141.51890563964844 53.33183670043945
v 141.60609436035156 142.1294708251953 9.607660293579102
v 148.4754638671875 144.75503540039062 3.552713678800501e-15
v 139.66847229003906 143.11141967773438 3.552713678800501e-15
v 158.95721435546875 147.29638671875 19.676206588745117
v 161.9578094482422 151.64439392089844 28.873029708862305
v 167.88931274414062 137.8080596923828 21.786954879760742
v 133.89686584472656 151.19305419921875 21.50604248046875
v 141.60609436035156 142.1294708251953 9.607660293579102
v 133.66847229003906 135.148193359375 9.834935188293457
v 154.06210327148438 147.39878845214844 47.79371643066406
v 155.8062286376953 140.8223876953125 51.647979736328125
v 168.72694396972656 131.4832305908203 41.16033172607422
v 155.45298767089844 142.7251434326172 0.3546123802661896
v 155.5797882080078 142.4798583984375 3.552713678800501e-15
v 152.85101318359375 143.58538818359375 3.552713678800501e-15
v 167.06655883789062 141.06309509277344 35.08641815185547
v 167.88931274414062 137.8080596923828 21.786954879760742
v 161.9578094482422 151.64439392089844 28.873029708862305
v 127.12016296386719 139.27288818359375 47.75386047363281
v 129.35479736328125 150.21920776367188 60.068546295166016
v 125.9496078491211 146.4427490234375 33.96359634399414
v 127.12016296386719 139.27288818359375 47.75386047363281
v 132.52578735351562 145.2882537841797 61.557594299316406
v 129.35479736328125 150.21920776367188 60.068546295166016
v 142.13833618164062 136.740234375 55.22562789916992
v 132.16128540039062 153.61929321289062 64.71089935302734
v 132.52578735351562 145.2882537841797 61.557594299316406
v 141.60609436035156 142.1294708251953 9.607660293579102
v 152.69618225097656 140.72584533691406 11.895764350891113
v 148.4754638671875 144.75503540039062 3.552713678800501e-15
v 152.69618225097656 140.72584533691406 11.895764350891113
v 149.03138732910156 144.72103881835938 3.552713678800501e-15
v 148.4754638671875 144.75503540039062 3.552713678800501e-15
v 133.66847229003906 135.148193359375 9.834935188293457
v 126.80592346191406 140.9291229248047 22.328800201416016
v 133.89686584472656 151.19305419921875 21.50604248046875
v 168.72694396972656 131.4832305908203 41.16033172607422
v 161.1053466796875 151.337158203125 35.94969177246094
v 154.06210327148438 147.39878845214844 47.79371643066406
v 125.9496078491211 146.4427490234375 33.96359634399414
v 124.36500549316406 135.8949737548828 45.413818359375
v 127.12016296386719 139.27288818359375 47.75386047363281
v 160.81735229492188 136.1204833984375 7.072207927703857
v 155.45298767089844 142.7251434326172 0.3546123802661896
v 149.71685791015625 144.27685546875 3.552713678800501e-15
v 155.45298767089844 142.7251434326172 0.3546123802661896
v 152.85101318359375 143.58538818359375 3.552713678800501e-15
v 149.71685791015625 144.27685546875 3.552713678800501e-15
v 154.06210327148438 147.39878845214844 47.79371643066406
v 143.18930053710938 141.51890563964844 53.33183670043945
v 155.8062286376953 140.8223876953125 51.647979736328125
v 155.45298767089844 142.7251434326172 0.3546123802661896
v 160.81735229492188 136.1204833984375 7.072207927703857
v 157.33660888671875 141.1000518798828 3.552713678800501e-15
v 160.81735229492188 136.1204833984375 7.072207927703857
v 163.22779846191406 135.73379516601562 3.552713678800501e-15
v 157.33660888671875 141.1000518798828 3.552713678800501e-15
v 168.72694396972656 131.4832305908203 41.16033172607422
v 167.06655883789062 141.06309509277344 35.08641815185547
v 161.1053466796875 151.337158203125 35.94969177246094
v 121.10639953613281 126.23277282714844 36.23265838623047
v 125.9496078491211 146.4427490234375 33.96359634399414
v 126.80592346191406 140.9291229248047 22.328800201416016
v 125.9496078491211 146.4427490234375 33.96359634399414
v 121.10639953613281 126.23277282714844 36.23265838623047
v 124.36500549316406 135.8949737548828 45.413818359375
v 143.18930053710938 141.51890563964844 53.33183670043945
v 131.3116455078125 155.95228576660156 62.26954650878906
v 142.13833618164062 136.740234375 55.22562789916992
v 155.45298767089844 142.7251434326172 0.3546123802661896
v 157.33660888671875 141.1000518798828 3.552713678800501e-15
v 155.5797882080078 142.4798583984375 3.552713678800501e-15
v 152.69618225097656 140.72584533691406 11.895764350891113
v 160.81735229492188 136.1204833984375 7.072207927703857
v 149.03138732910156 144.72103881835938 3.552713678800501e-15
v 160.81735229492188 136.1204833984375 7.072207927703857
v 149.71685791015625 144.27685546875 3.552713678800501e-15
v 149.03138732910156 144.72103881835938 3.552713678800501e-15
v 161.99916076660156 130.70445251464844 11.256840705871582
v 152.69618225097656 140.72584533691406 11.895764350891113
v 158.95721435546875 147.29638671875 19.676206588745117
v 158.95721435546875 147.29638671875 19.676206588745117
v 167.88931274414062 137.8080596923828 21.786954879760742
v 161.99916076660156 130.70445251464844 11.256840705871582
v 167.88931274414062 137.8080596923828 21.786954879760742
v 167.06655883789062 141.06309509277344 35.08641815185547
v 175.16702270507812 136.04266357421875 33.28864669799805
v 132.33209228515625 126.1226577758789 9.597347259521484
v 126.80592346191406 140.9291229248047 22.328800201416016
v 133.66847229003906 135.148193359375 9.834935188293457
v 133.66847229003906 135.148193359375 9.834935188293457
v 141.60609436035156 142.1294708251953 9.607660293579102
v 139.02511596679688 142.55068969726562 3.552713678800501e-15
v 141.60609436035156 142.1294708251953 9.607660293579102
v 139.66847229003906 143.11141967773438 3.552713678800501e-15
v 139.02511596679688 142.55068969726562 3.552713678800501e-15
v 133.66847229003906 135.148193359375 9.834935188293457
v 139.02511596679688 142.55068969726562 3.552713678800501e-15
v 134.71255493164062 136.01620483398438 3.552713678800501e-15
v 155.8062286376953 140.8223876953125 51.647979736328125
v 143.18930053710938 141.51890563964844 53.33183670043945
v 142.13833618164062 136.740234375 55.22562789916992
v 132.52578735351562 145.2882537841797 61.557594299316406
v 127.12016296386719 139.27288818359375 47.75386047363281
v 136.26116943359375 135.20318603515625 54.27821350097656
v 161.99916076660156 130.70445251464844 11.256840705871582
v 160.81735229492188 136.1204833984375 7.072207927703857
v 152.69618225097656 140.72584533691406 11.895764350891113
v 155.8062286376953 140.8223876953125 51.647979736328125
v 142.13833618164062 136.740234375 55.22562789916992
v 156.1748504638672 130.73138427734375 53.47505569458008
v 132.52578735351562 145.2882537841797 61.557594299316406
v 136.26116943359375 135.20318603515625 54.27821350097656
v 142.13833618164062 136.740234375 55.22562789916992
v 167.06655883789062 141.06309509277344 35.08641815185547
v 168.72694396972656 131.4832305908203 41.16033172607422
v 175.16702270507812 136.04266357421875 33.28864669799805
v 174.8770751953125 129.06442260742188 24.074012756347656
v 167.88931274414062 137.8080596923828 21.786954879760742
v 175.16702270507812 136.04266357421875 33.28864669799805
v 121.10639953613281 126.23277282714844 36.23265838623047
v 126.80592346191406 140.9291229248047 22.328800201416016
v 124.1137466430664 125.07859802246094 22.040197372436523
v 160.81735229492188 136.1204833984375 7.072207927703857
v 161.99916076660156 130.70445251464844 11.256840705871582
v 163.22779846191406 135.73379516601562 3.552713678800501e-15
v 161.99916076660156 130.70445251464844 11.256840705871582
v 163.47622680664062 135.19610595703125 3.552713678800501e-15
v 163.22779846191406 135.73379516601562 3.552713678800501e-15
v 133.66847229003906 135.148193359375 9.834935188293457
v 134.71255493164062 136.01620483398438 3.552713678800501e-15
v 133.56517028808594 123.95476531982422 3.552713678800501e-15
v 124.1137466430664 125.07859802246094 22.040197372436523
v 126.80592346191406 140.9291229248047 22.328800201416016
v 132.33209228515625 126.1226577758789 9.597347259521484
v 124.36500549316406 135.8949737548828 45.413818359375
v 131.95068359375 120.64824676513672 52.48744583129883
v 127.12016296386719 139.27288818359375 47.75386047363281
v 127.12016296386719 139.27288818359375 47.75386047363281
v 131.95068359375 120.64824676513672 52.48744583129883
v 136.26116943359375 135.20318603515625 54.27821350097656
v 161.99916076660156 130.70445251464844 11.256840705871582
v 165.42227172851562 128.65951538085938 3.552713678800501e-15
v 163.47622680664062 135.19610595703125 3.552713678800501e-15
v 167.88931274414062 137.8080596923828 21.786954879760742
v 168.74024963378906 122.3984146118164 19.896944046020508
v 161.99916076660156 130.70445251464844 11.256840705871582
v 167.88931274414062 137.8080596923828 21.786954879760742
v 174.8770751953125 129.06442260742188 24.074012756347656
v 168.74024963378906 122.3984146118164 19.896944046020508
v 136.26116943359375 135.20318603515625 54.27821350097656
v 141.80465698242188 118.73480987548828 55.458526611328125
v 142.13833618164062 136.740234375 55.22562789916992
v 142.13833618164062 136.740234375 55.22562789916992
v 141.80465698242188 118.73480987548828 55.458526611328125
v 156.1748504638672 130.73138427734375 53.47505569458008
v 136.26116943359375 135.20318603515625 54.27821350097656
v 131.95068359375 120.64824676513672 52.48744583129883
v 141.80465698242188 118.73480987548828 55.458526611328125
v 168.72694396972656 131.4832305908203 41.16033172607422
v 173.6884002685547 126.21966552734375 38.949485778808594
v 175.16702270507812 136.04266357421875 33.28864669799805
v 165.06239318847656 122.69963073730469 44.169246673583984
v 168.72694396972656 131.4832305908203 41.16033172607422
v 155.8062286376953 140.8223876953125 51.647979736328125
v 156.1748504638672 130.73138427734375 53.47505569458008
v 165.06239318847656 122.69963073730469 44.169246673583984
v 155.8062286376953 140.8223876953125 51.647979736328125
v 168.74024963378906 122.3984146118164 19.896944046020508
v 162.31423950195312 125.67510223388672 12.128745079040527
v 161.99916076660156 130.70445251464844 11.256840705871582
v 173.6884002685547 126.21966552734375 38.949485778808594
v 174.36349487304688 117.96414184570312 30.408355712890625
v 175.16702270507812 136.04266357421875 33.28864669799805
v 175.16702270507812 136.04266357421875 33.28864669799805
v 174.36349487304688 117.96414184570312 30.408355712890625
v 174.8770751953125 129.06442260742188 24.074012756347656
v 132.33209228515625 126.1226577758789 9.597347259521484
v 133.66847229003906 135.148193359375 9.834935188293457
v 133.5273895263672 123.70679473876953 3.552713678800501e-15
v 133.66847229003906 135.148193359375 9.834935188293457
v 133.56517028808594 123.95476531982422 3.552713678800501e-15
v 133.5273895263672 123.70679473876953 3.552713678800501e-15
v 168.72694396972656 131.4832305908203 41.16033172607422
v 165.06239318847656 122.69963073730469 44.169246673583984
v 173.6884002685547 126.21966552734375 38.949485778808594
v 128.9014434814453 112.61076354980469 20.182241439819336
v 121.10639953613281 126.23277282714844 36.23265838623047
v 124.1137466430664 125.07859802246094 22.040197372436523
v 124.36500549316406 135.8949737548828 45.413818359375
v 121.10639953613281 126.23277282714844 36.23265838623047
v 126.33980560302734 111.98312377929688 45.74418258666992
v 161.99916076660156 130.70445251464844 11.256840705871582
v 162.31423950195312 125.67510223388672 12.128745079040527
v 161.32215881347656 120.66649627685547 3.552713678800501e-15
v 162.31423950195312 125.67510223388672 12.128745079040527
v 161.36619567871094 119.6930923461914 3.552713678800501e-15
v 161.32215881347656 120.66649627685547 3.552713678800501e-15
v 124.1137466430664 125.07859802246094 22.040197372436523
v 132.33209228515625 126.1226577758789 9.597347259521484
v 128.9014434814453 112.61076354980469 20.182241439819336
v 154.71673583984375 111.38613891601562 51.67837142944336
v 165.06239318847656 122.69963073730469 44.169246673583984
v 156.1748504638672 130.73138427734375 53.47505569458008
v 162.31423950195312 125.67510223388672 12.128745079040527
v 155.42408752441406 117.46395111083984 11.768304824829102
v 161.36619567871094 119.6930923461914 3.552713678800501e-15
v 155.42408752441406 117.46395111083984 11.768304824829102
v 160.18673706054688 118.31228637695312 3.552713678800501e-15
v 161.36619567871094 119.6930923461914 3.552713678800501e-15
v 165.06239318847656 122.69963073730469 44.169246673583984
v 172.35324096679688 117.18807220458984 34.69793701171875
v 173.6884002685547 126.21966552734375 38.949485778808594
v 161.99916076660156 130.70445251464844 11.256840705871582
v 161.32215881347656 120.66649627685547 3.552713678800501e-15
v 165.42227172851562 128.65951538085938 3.552713678800501e-15
v 174.36349487304688 117.96414184570312 30.408355712890625
v 173.6884002685547 126.21966552734375 38.949485778808594
v 172.35324096679688 117.18807220458984 34.69793701171875
v 167.55873107910156 116.62895965576172 36.54682540893555
v 172.35324096679688 117.18807220458984 34.69793701171875
v 165.06239318847656 122.69963073730469 44.169246673583984
v 154.71673583984375 111.38613891601562 51.67837142944336
v 156.1748504638672 130.73138427734375 53.47505569458008
v 141.80465698242188 118.73480987548828 55.458526611328125
v 131.95068359375 120.64824676513672 52.48744583129883
v 124.36500549316406 135.8949737548828 45.413818359375
v 126.33980560302734 111.98312377929688 45.74418258666992
v 174.36349487304688 117.96414184570312 30.408355712890625
v 168.74024963378906 122.3984146118164 19.896944046020508
v 174.8770751953125 129.06442260742188 24.074012756347656
v 134.95965576171875 118.8945083618164 10.334148406982422
v 132.33209228515625 126.1226577758789 9.597347259521484
v 133.59906005859375 123.51139831542969 3.552713678800501e-15
v 132.33209228515625 126.1226577758789 9.597347259521484
v 133.5273895263672 123.70679473876953 3.552713678800501e-15
v 133.59906005859375 123.51139831542969 3.552713678800501e-15
v 141.80465698242188 118.73480987548828 55.458526611328125
v 131.95068359375 120.64824676513672 52.48744583129883
v 132.9085235595703 111.00146484375 61.09780502319336
v 134.95965576171875 118.8945083618164 10.334148406982422
v 128.9014434814453 112.61076354980469 20.182241439819336
v 132.33209228515625 126.1226577758789 9.597347259521484
v 155.42408752441406 117.46395111083984 11.768304824829102
v 148.13729858398438 111.95257568359375 3.552713678800501e-15
v 160.18673706054688 118.31228637695312 3.552713678800501e-15
v 160.26686096191406 103.17237854003906 34.734317779541016
v 167.55873107910156 116.62895965576172 36.54682540893555
v 165.06239318847656 122.69963073730469 44.169246673583984
v 132.9085235595703 111.00146484375 61.09780502319336
v 131.95068359375 120.64824676513672 52.48744583129883
v 129.23175048828125 109.3935775756836 58.64348602294922
v 168.74024963378906 122.3984146118164 19.896944046020508
v 174.36349487304688 117.96414184570312 30.408355712890625
v 167.1422119140625 115.68383026123047 27.414934158325195
v 134.95965576171875 118.8945083618164 10.334148406982422
v 133.59906005859375 123.51139831542969 3.552713678800501e-15
v 137.8352508544922 114.75462341308594 3.552713678800501e-15
v 155.42408752441406 117.46395111083984 11.768304824829102
v 162.31423950195312 125.67510223388672 12.128745079040527
v 161.87802124023438 106.49625396728516 23.8260555267334
v 168.74024963378906 122.3984146118164 19.896944046020508
v 161.87802124023438 106.49625396728516 23.8260555267334
v 162.31423950195312 125.67510223388672 12.128745079040527
v 134.95965576171875 118.8945083618164 10.334148406982422
v 142.70936584472656 114.04297637939453 9.681512832641602
v 128.9014434814453 112.61076354980469 20.182241439819336
v 155.42408752441406 117.46395111083984 11.768304824829102
v 142.70936584472656 114.04297637939453 9.681512832641602
v 148.13729858398438 111.95257568359375 3.552713678800501e-15
v 142.70936584472656 114.04297637939453 9.681512832641602
v 146.1676788330078 111.53120422363281 3.552713678800501e-15
v 148.13729858398438 111.95257568359375 3.552713678800501e-15
v 172.35324096679688 117.18807220458984 34.69793701171875
v 167.1422119140625 115.68383026123047 27.414934158325195
v 174.36349487304688 117.96414184570312 30.408355712890625
v 167.1422119140625 115.68383026123047 27.414934158325195
v 172.35324096679688 117.18807220458984 34.69793701171875
v 167.55873107910156 116.62895965576172 36.54682540893555
v 129.23175048828125 109.3935775756836 58.64348602294922
v 131.95068359375 120.64824676513672 52.48744583129883
v 126.33980560302734 111.98312377929688 45.74418258666992
v 155.42408752441406 117.46395111083984 11.768304824829102
v 161.87802124023438 106.49625396728516 23.8260555267334
v 147.2093048095703 107.88985443115234 15.31137752532959
v 147.2093048095703 107.88985443115234 15.31137752532959
v 142.70936584472656 114.04297637939453 9.681512832641602
v 155.42408752441406 117.46395111083984 11.768304824829102
v 165.06239318847656 122.69963073730469 44.169246673583984
v 154.71673583984375 111.38613891601562 51.67837142944336
v 160.26686096191406 103.17237854003906 34.734317779541016
v 142.70936584472656 114.04297637939453 9.681512832641602
v 134.95965576171875 118.8945083618164 10.334148406982422
v 138.9728546142578 114.06465911865234 3.552713678800501e-15
v 134.95965576171875 118.8945083618164 10.334148406982422
v 137.8352508544922 114.75462341308594 3.552713678800501e-15
v 138.9728546142578 114.06465911865234 3.552713678800501e-15
v 167.1422119140625 115.68383026123047 27.414934158325195
v 167.55873107910156 116.62895965576172 36.54682540893555
v 160.26686096191406 103.17237854003906 34.734317779541016
v 142.70936584472656 114.04297637939453 9.681512832641602
v 138.9728546142578 114.06465911865234 3.552713678800501e-15
v 146.1676788330078 111.53120422363281 3.552713678800501e-15
v 128.07861328125 105.49002838134766 33.349998474121094
v 126.33980560302734 111.98312377929688 45.74418258666992
v 121.10639953613281 126.23277282714844 36.23265838623047
v 168.74024963378906 122.3984146118164 19.896944046020508
v 167.1422119140625 115.68383026123047 27.414934158325195
v 161.87802124023438 106.49625396728516 23.8260555267334
v 141.80465698242188 118.73480987548828 55.458526611328125
v 142.388671875 110.6892318725586 50.46709060668945
v 154.71673583984375 111.38613891601562 51.67837142944336
v 131.4066619873047 100.74729919433594 65.06915283203125
v 129.23175048828125 109.3935775756836 58.64348602294922
v 126.33980560302734 111.98312377929688 45.74418258666992
v 128.07861328125 105.49002838134766 33.349998474121094
v 121.10639953613281 126.23277282714844 36.23265838623047
v 128.9014434814453 112.61076354980469 20.182241439819336
v 142.70936584472656 114.04297637939453 9.681512832641602
v 147.2093048095703 107.88985443115234 15.31137752532959
v 135.41668701171875 106.25653839111328 18.92824363708496
v 129.23175048828125 109.3935775756836 58.64348602294922
v 131.4066619873047 100.74729919433594 65.06915283203125
v 132.9085235595703 111.00146484375 61.09780502319336
v 142.70936584472656 114.04297637939453 9.681512832641602
v 135.41668701171875 106.25653839111328 18.92824363708496
v 128.9014434814453 112.61076354980469 20.182241439819336
v 128.9014434814453 112.61076354980469 20.182241439819336
v 135.41668701171875 106.25653839111328 18.92824363708496
v 128.07861328125 105.49002838134766 33.349998474121094
v 143.13230895996094 101.1514892578125 39.05461883544922
v 154.71673583984375 111.38613891601562 51.67837142944336
v 142.388671875 110.6892318725586 50.46709060668945
v 126.33980560302734 111.98312377929688 45.74418258666992
v 128.07861328125 105.49002838134766 33.349998474121094
v 131.4066619873047 100.74729919433594 65.06915283203125
v 132.9085235595703 111.00146484375 61.09780502319336
v 131.4066619873047 100.74729919433594 65.06915283203125
v 141.80465698242188 118.73480987548828 55.458526611328125
v 141.80465698242188 118.73480987548828 55.458526611328125
v 131.4066619873047 100.74729919433594 65.06915283203125
v 142.388671875 110.6892318725586 50.46709060668945
v 161.87802124023438 106.49625396728516 23.8260555267334
v 167.1422119140625 115.68383026123047 27.414934158325195
v 160.26686096191406 103.17237854003906 34.734317779541016
v 147.2093048095703 107.88985443115234 15.31137752532959
v 161.87802124023438 106.49625396728516 23.8260555267334
v 143.2178497314453 102.90802764892578 22.736536026000977
v 142.388671875 110.6892318725586 50.46709060668945
v 131.4066619873047 100.74729919433594 65.06915283203125
v 143.13230895996094 101.1514892578125 39.05461883544922
v 160.26686096191406 103.17237854003906 34.734317779541016
v 143.2178497314453 102.90802764892578 22.736536026000977
v 161.87802124023438 106.49625396728516 23.8260555267334
v 147.2093048095703 107.88985443115234 15.31137752532959
v 143.2178497314453 102.90802764892578 22.736536026000977
v 135.41668701171875 106.25653839111328 18.92824363708496
v 160.26686096191406 103.17237854003906 34.734317779541016
v 154.71673583984375 111.38613891601562 51.67837142944336
v 143.13230895996094 101.1514892578125 39.05461883544922
v 133.0183563232422 99.99036407470703 38.81353759765625
v 135.41668701171875 106.25653839111328 18.92824363708496
v 143.2178497314453 102.90802764892578 22.736536026000977
v 128.07861328125 105.49002838134766 33.349998474121094
v 135.41668701171875 106.25653839111328 18.92824363708496
v 133.0183563232422 99.99036407470703 38.81353759765625
v 160.26686096191406 103.17237854003906 34.734317779541016
v 143.13230895996094 101.1514892578125 39.05461883544922
v 143.2178497314453 102.90802764892578 22.736536026000977
v 133.0183563232422 99.99036407470703 38.81353759765625
v 143.2178497314453 102.90802764892578 22.736536026000977
v 143.13230895996094 101.1514892578125 39.05461883544922
v 133.0183563232422 99.99036407470703 38.81353759765625
v 143.13230895996094 101.1514892578125 39.05461883544922
v 137.088623046875 98.19319915771484 48.09675979614258
v 133.0183563232422 99.99036407470703 38.81353759765625
v 131.4066619873047 100.74729919433594 65.06915283203125
v 128.07861328125 105.49002838134766 33.349998474121094
v 137.088623046875 98.19319915771484 48.09675979614258
v 143.13230895996094 101.1514892578125 39.05461883544922
v 131.4066619873047 100.74729919433594 65.06915283203125
v 131.4066619873047 100.74729919433594 65.06915283203125
v 133.0183563232422 99.99036407470703 38.81353759765625
v 137.088623046875 98.19319915771484 48.09675979614258
v 163.22779846191406 135.73379516601562 3.552713678800501e-15
v 160.18673706054688 118.31228637695312 3.552713678800501e-15
v 157.33660888671875 141.1000518798828 3.552713678800501e-15
v 163.22779846191406 135.73379516601562 3.552713678800501e-15
v 161.32215881347656 120.66649627685547 3.552713678800501e-15
v 160.18673706054688 118.31228637695312 3.552713678800501e-15
v 163.22779846191406 135.73379516601562 3.552713678800501e-15
v 165.42227172851562 128.65951538085938 3.552713678800501e-15
v 161.32215881347656 120.66649627685547 3.552713678800501e-15
v 163.22779846191406 135.73379516601562 3.552713678800501e-15
v 163.47622680664062 135.19610595703125 3.552713678800501e-15
v 165.42227172851562 128.65951538085938 3.552713678800501e-15
v 160.18673706054688 118.31228637695312 3.552713678800501e-15
v 155.5797882080078 142.4798583984375 3.552713678800501e-15
v 157.33660888671875 141.1000518798828 3.552713678800501e-15
v 160.18673706054688 118.31228637695312 3.552713678800501e-15
v 152.85101318359375 143.58538818359375 3.552713678800501e-15
v 155.5797882080078 142.4798583984375 3.552713678800501e-15
v 160.18673706054688 118.31228637695312 3.552713678800501e-15
v 149.71685791015625 144.27685546875 3.552713678800501e-15
v 152.85101318359375 143.58538818359375 3.552713678800501e-15
v 160.18673706054688 118.31228637695312 3.552713678800501e-15
v 149.03138732910156 144.72103881835938 3.552713678800501e-15
v 149.71685791015625 144.27685546875 3.552713678800501e-15
v 160.18673706054688 118.31228637695312 3.552713678800501e-15
v 148.4754638671875 144.75503540039062 3.552713678800501e-15
v 149.03138732910156 144.72103881835938 3.552713678800501e-15
v 160.18673706054688 118.31228637695312 3.552713678800501e-15
v 148.13729858398438 111.95257568359375 3.552713678800501e-15
v 148.4754638671875 144.75503540039062 3.552713678800501e-15
v 146.1676788330078 111.53120422363281 3.552713678800501e-15
v 148.4754638671875 144.75503540039062 3.552713678800501e-15
v 148.13729858398438 111.95257568359375 3.552713678800501e-15
v 146.1676788330078 111.53120422363281 3.552713678800501e-15
v 139.66847229003906 143.11141967773438 3.552713678800501e-15
v 148.4754638671875 144.75503540039062 3.552713678800501e-15
v 146.1676788330078 111.53120422363281 3.552713678800501e-15
v 139.02511596679688 142.55068969726562 3.552713678800501e-15
v 139.66847229003906 143.11141967773438 3.552713678800501e-15
v 146.1676788330078 111.53120422363281 3.552713678800501e-15
v 138.9728546142578 114.06465911865234 3.552713678800501e-15
v 139.02511596679688 142.55068969726562 3.552713678800501e-15
v 138.9728546142578 114.06465911865234 3.552713678800501e-15
v 137.8352508544922 114.75462341308594 3.552713678800501e-15
v 139.02511596679688 142.55068969726562 3.552713678800501e-15
v 139.02511596679688 142.55068969726562 3.552713678800501e-15
v 137.8352508544922 114.75462341308594 3.552713678800501e-15
v 134.71255493164062 136.01620483398438 3.552713678800501e-15
v 137.8352508544922 114.75462341308594 3.552713678800501e-15
v 133.59906005859375 123.51139831542969 3.552713678800501e-15
v 134.71255493164062 136.01620483398438 3.552713678800501e-15
v 134.71255493164062 136.01620483398438 3.552713678800501e-15
v 133.59906005859375 123.51139831542969 3.552713678800501e-15
v 133.56517028808594 123.95476531982422 3.552713678800501e-15
v 133.59906005859375 123.51139831542969 3.552713678800501e-15
v 133.5273895263672 123.70679473876953 3.552713678800501e-15
v 133.56517028808594 123.95476531982422 3.552713678800501e-15
v 161.36619567871094 119.6930923461914 3.552713678800501e-15
v 160.18673706054688 118.31228637695312 3.552713678800501e-15
v 161.32215881347656 120.66649627685547 3.552713678800501e-15
vn 0.540873427782512 0.8058973244776287 0.24080165597145553
vn 0.540873427782512 0.8058973244776287 0.24080165597145553
vn 0.540873427782512 0.8058973244776287 0.24080165597145553
vn 0.40927033861093814 0.9115616510947716 0.03940997572521235
vn 0.40927033861093814 0.9115616510947716 0.03940997572521235
vn 0.40927033861093814 0.9115616510947716 0.03940997572521235
vn -0.04502842480845646 0.968233168311592 -0.24596132366810317
vn -0.04502842480845646 0.968233168311592 -0.24596132366810317
vn -0.04502842480845646 0.968233168311592 -0.24596132366810317
vn -0.24330998467947482 0.942469875936307 -0.2292395784062511
vn -0.24330998467947482 0.942469875936307 -0.2292395784062511
vn -0.24330998467947482 0.942469875936307 -0.2292395784062511
vn -0.620625082749498 0.7814140371085815 -0.06493542385976399
vn -0.620625082749498 0.7814140371085815 -0.06493542385976399
vn -0.620625082749498 0.7814140371085815 -0.06493542385976399
vn 0.08508960701635301 0.9924766782855274 -0.08803295881162022
vn 0.08508960701635301 0.9924766782855274 -0.08803295881162022
vn 0.08508960701635301 0.9924766782855274 -0.08803295881162022
vn -0.952397517350509 0.2936947504992341 0.08174571838194078
vn -0.952397517350509 0.2936947504992341 0.08174571838194078
vn -0.952397517350509 0.2936947504992341 0.08174571838194078
vn 0.17438888715495665 0.982616374291971 0.06366770775013592
vn 0.17438888715495665 0.982616374291971 0.06366770775013592
vn 0.17438888715495665 0.982616374291971 0.06366770775013592
vn -0.825424195147815 0.5635495787441505 -0.03296620029473328
vn -0.825424195147815 0.5635495787441505 -0.03296620029473328
vn -0.825424195147815 0.5635495787441505 -0.03296620029473328
vn 0.23273705893948293 0.8729650174852046 0.4286788304118318
vn 0.23273705893948293 0.8729650174852046 0.4286788304118318
vn 0.23273705893948293 0.8729650174852046 0.4286788304118318
vn -0.8886241942289681 0.13503970834868886 0.4383050519900702
vn -0.8886241942289681 0.13503970834868886 0.4383050519900702
vn -0.8886241942289681 0.13503970834868886 0.4383050519900702
vn 0.8101212255641995 0.4030213887545722 0.42576679073959656
vn 0.8101212255641995 0.4030213887545722 0.42576679073959656
vn 0.8101212255641995 0.4030213887545722 0.42576679073959656
vn 0.3537161575022375 0.7957415490364227 -0.4916098728249532
vn 0.3537161575022375 0.7957415490364227 -0.4916098728249532
vn 0.3537161575022375 0.7957415490364227 -0.4916098728249532
vn 0.8626738574205269 0.49002092275160863 0.12519309481297322
vn 0.8626738574205269 0.49002092275160863 0.12519309481297322
vn 0.8626738574205269 0.49002092275160863 0.12519309481297322
vn -0.8450218963133698 0.34719314875354895 -0.4066877330453338
vn -0.8450218963133698 0.34719314875354895 -0.4066877330453338
vn -0.8450218963133698 0.34719314875354895 -0.4066877330453338
vn -0.041250986197964655 0.7817505693220282 -0.6222253639175923
vn -0.041250986197964655 0.7817505693220282 -0.6222253639175923
vn -0.041250986197964655 0.7817505693220282 -0.6222253639175923
vn 0.2316831369349007 0.6484535389736074 -0.7251420080595304
vn 0.2316831369349007 0.6484535389736074 -0.7251420080595304
vn 0.2316831369349007 0.6484535389736074 -0.7251420080595304
vn -0.7220797547773619 -0.27230560813573146 0.635964215595889
vn -0.7220797547773619 -0.27230560813573146 0.635964215595889
vn -0.7220797547773619 -0.27230560813573146 0.635964215595889
vn -0.7943767338344511 0.52420371963255 -0.3068811904726463
vn -0.7943767338344511 0.52420371963255 -0.3068811904726463
vn -0.7943767338344511 0.52420371963255 -0.3068811904726463
vn 0.22298115925133963 0.6489220550054895 -0.7274472964733467
vn 0.22298115925133963 0.6489220550054895 -0.7274472964733467
vn 0.22298115925133963 0.6489220550054895 -0.7274472964733467
vn 0.8832439832840486 0.45205521782389685 0.12460395672175387
vn 0.8832439832840486 0.45205521782389685 0.12460395672175387
vn 0.8832439832840486 0.45205521782389685 0.12460395672175387
vn -0.05984141441906989 0.7408110803628297 0.669042560927167
vn -0.05984141441906989 0.7408110803628297 0.669042560927167
vn -0.05984141441906989 0.7408110803628297 0.669042560927167
vn -0.18174941382153045 0.9738685244558027 0.13618828014850395
vn -0.18174941382153045 0.9738685244558027 0.13618828014850395
vn -0.18174941382153045 0.9738685244558027 0.13618828014850395
vn 0.6892328450230214 0.541819719177544 -0.4810296012220445
vn 0.6892328450230214 0.541819719177544 -0.4810296012220445
vn 0.6892328450230214 0.541819719177544 -0.4810296012220445
vn -0.47845533042070004 0.5209856905092043 -0.7068623678458674
vn -0.47845533042070004 0.5209856905092043 -0.7068623678458674
vn -0.47845533042070004 0.5209856905092043 -0.7068623678458674
vn 0.7354209949946255 0.4770662828339999 0.48121068348911916
vn 0.7354209949946255 0.4770662828339999 0.48121068348911916
vn 0.7354209949946255 0.4770662828339999 0.48121068348911916
vn 0.33493195808351234 0.826711222855535 -0.45207204896902253
vn 0.33493195808351234 0.826711222855535 -0.45207204896902253
vn 0.33493195808351234 0.826711222855535 -0.45207204896902253
vn 0.9096735366770536 0.4129026969764412 -0.044781910399649655
vn 0.9096735366770536 0.4129026969764412 -0.044781910399649655
vn 0.9096735366770536 0.4129026969764412 -0.044781910399649655
vn -0.9905235056857585 0.0679036371013833 0.11938291650147635
vn -0.9905235056857585 0.0679036371013833 0.11938291650147635
vn -0.9905235056857585 0.0679036371013833 0.11938291650147635
vn -0.7986983216401643 -0.37042713886775175 0.4741990360591597
vn -0.7986983216401643 -0.37042713886775175 0.4741990360591597
vn -0.7986983216401643 -0.37042713886775175 0.4741990360591597
vn 0.3004250967483509 -0.3261145210556806 0.8963225314586083
vn 0.3004250967483509 -0.3261145210556806 0.8963225314586083
vn 0.3004250967483509 -0.3261145210556806 0.8963225314586083
vn 0.058202670643617574 0.9516327049823924 0.30167473201752437
vn 0.058202670643617574 0.9516327049823924 0.30167473201752437
vn 0.058202670643617574 0.9516327049823924 0.30167473201752437
vn 0.05819551074150224 0.9516323490884743 0.30167723596235785
vn 0.05819551074150224 0.9516323490884743 0.30167723596235785
vn 0.05819551074150224 0.9516323490884743 0.30167723596235785
vn -0.6915479693053391 0.4313166609449409 -0.5794198340935255
vn -0.6915479693053391 0.4313166609449409 -0.5794198340935255
vn -0.6915479693053391 0.4313166609449409 -0.5794198340935255
vn 0.7113436713361168 0.42081660982319086 0.5629418816778256
vn 0.7113436713361168 0.42081660982319086 0.5629418816778256
vn 0.7113436713361168 0.42081660982319086 0.5629418816778256
vn -0.830563378121207 0.462146914559499 0.3107807978093627
vn -0.830563378121207 0.462146914559499 0.3107807978093627
vn -0.830563378121207 0.462146914559499 0.3107807978093627
vn 0.1692153879946642 0.7669795982657205 0.6189575496833117
vn 0.1692153879946642 0.7669795982657205 0.6189575496833117
vn 0.1692153879946642 0.7669795982657205 0.6189575496833117
vn 0.16921028031475197 0.7669651298308163 0.6189768740909488
vn 0.16921028031475197 0.7669651298308163 0.6189768740909488
vn 0.16921028031475197 0.7669651298308163 0.6189768740909488
vn 0.14091331864004147 0.5281408281928823 0.8373832469219732
vn 0.14091331864004147 0.5281408281928823 0.8373832469219732
vn 0.14091331864004147 0.5281408281928823 0.8373832469219732
vn 0.6616801173229593 0.7264003322008955 0.18580091420093503
vn 0.6616801173229593 0.7264003322008955 0.18580091420093503
vn 0.6616801173229593 0.7264003322008955 0.18580091420093503
vn 0.6616767071521623 0.726402642833215 0.18580402497575926
vn 0.6616767071521623 0.726402642833215 0.18580402497575926
vn 0.6616767071521623 0.726402642833215 0.18580402497575926
vn 0.7893904086430338 0.42043356164167484 0.4473235998554965
vn 0.7893904086430338 0.42043356164167484 0.4473235998554965
vn 0.7893904086430338 0.42043356164167484 0.4473235998554965
vn -0.9623193280062717 0.21141404571960526 -0.17101348548587136
vn -0.9623193280062717 0.21141404571960526 -0.17101348548587136
vn -0.9623193280062717 0.21141404571960526 -0.17101348548587136
vn -0.9663215457420928 0.2415406152355649 0.0887738780623981
vn -0.9663215457420928 0.2415406152355649 0.0887738780623981
vn -0.9663215457420928 0.2415406152355649 0.0887738780623981
vn 0.6917964155577243 0.1293887930971429 0.7104057007389153
vn 0.6917964155577243 0.1293887930971429 0.7104057007389153
vn 0.6917964155577243 0.1293887930971429 0.7104057007389153
vn 0.5877485330017489 0.7483431766600153 -0.3074640660316081
vn 0.5877485330017489 0.7483431766600153 -0.3074640660316081
vn 0.5877485330017489 0.7483431766600153 -0.3074640660316081
vn 0.5402825427057061 0.8337833807793582 0.11357837815183243
vn 0.5402825427057061 0.8337833807793582 0.11357837815183243
vn 0.5402825427057061 0.8337833807793582 0.11357837815183243
vn 0.5402883798263854 0.833781288236452 0.11356597206620539
vn 0.5402883798263854 0.833781288236452 0.11356597206620539
vn 0.5402883798263854 0.833781288236452 0.11356597206620539
vn 0.4521573752706637 0.4681468873723144 -0.7592049787981884
vn 0.4521573752706637 0.4681468873723144 -0.7592049787981884
vn 0.4521573752706637 0.4681468873723144 -0.7592049787981884
vn 0.6221881242749314 0.4419666167045994 -0.6461791142786435
vn 0.6221881242749314 0.4419666167045994 -0.6461791142786435
vn 0.6221881242749314 0.4419666167045994 -0.6461791142786435
vn 0.48937766163985585 0.8535794340145976 -0.17863833327487613
vn 0.48937766163985585 0.8535794340145976 -0.17863833327487613
vn 0.48937766163985585 0.8535794340145976 -0.17863833327487613
vn -0.8397146081835115 0.13815792767264756 -0.5251587986737073
vn -0.8397146081835115 0.13815792767264756 -0.5251587986737073
vn -0.8397146081835115 0.13815792767264756 -0.5251587986737073
vn -0.6430660485644525 0.7378347515398085 0.2050998210723021
vn -0.6430660485644525 0.7378347515398085 0.2050998210723021
vn -0.6430660485644525 0.7378347515398085 0.2050998210723021
vn -0.6430707350556403 0.7378303748425499 0.2051008719501231
vn -0.6430707350556403 0.7378303748425499 0.2051008719501231
vn -0.6430707350556403 0.7378303748425499 0.2051008719501231
vn -0.8339545723809344 0.5503845808932214 -0.03995728118786313
vn -0.8339545723809344 0.5503845808932214 -0.03995728118786313
vn -0.8339545723809344 0.5503845808932214 -0.03995728118786313
vn 0.14280596835980675 0.3373453671900294 0.9304861947585478
vn 0.14280596835980675 0.3373453671900294 0.9304861947585478
vn 0.14280596835980675 0.3373453671900294 0.9304861947585478
vn -0.6251746616260738 -0.5956163001030427 0.5043786925637187
vn -0.6251746616260738 -0.5956163001030427 0.5043786925637187
vn -0.6251746616260738 -0.5956163001030427 0.5043786925637187
vn 0.6343599961761557 0.5545464511127367 0.5385774120863748
vn 0.6343599961761557 0.5545464511127367 0.5385774120863748
vn 0.6343599961761557 0.5545464511127367 0.5385774120863748
vn 0.1978876527811728 0.181634612833218 0.9632493676601533
vn 0.1978876527811728 0.181634612833218 0.9632493676601533
vn 0.1978876527811728 0.181634612833218 0.9632493676601533
vn 0.020465256991794842 -0.5801471569733987 0.8142545360708422
vn 0.020465256991794842 -0.5801471569733987 0.8142545360708422
vn 0.020465256991794842 -0.5801471569733987 0.8142545360708422
vn 0.4820551923792555 0.5272181416400411 0.699759832103716
vn 0.4820551923792555 0.5272181416400411 0.699759832103716
vn 0.4820551923792555 0.5272181416400411 0.699759832103716
vn 0.7628821443497795 0.5036395396096064 -0.4054109618326887
vn 0.7628821443497795 0.5036395396096064 -0.4054109618326887
vn 0.7628821443497795 0.5036395396096064 -0.4054109618326887
vn -0.9616453578266744 0.1672912525987792 -0.2173748894751617
vn -0.9616453578266744 0.1672912525987792 -0.2173748894751617
vn -0.9616453578266744 0.1672912525987792 -0.2173748894751617
vn 0.8726870102263142 0.40320591661746247 0.275394936385782
vn 0.8726870102263142 0.40320591661746247 0.275394936385782
vn 0.8726870102263142 0.40320591661746247 0.275394936385782
vn 0.8726863937627908 0.4032069778045157 0.27539533618244866
vn 0.8726863937627908 0.4032069778045157 0.27539533618244866
vn 0.8726863937627908 0.4032069778045157 0.27539533618244866
vn -0.99082418124363 0.09425545657756224 -0.09686769723827252
vn -0.99082418124363 0.09425545657756224 -0.09686769723827252
vn -0.99082418124363 0.09425545657756224 -0.09686769723827252
vn -0.8306482564531037 0.15084269879374174 -0.5359757030612857
vn -0.8306482564531037 0.15084269879374174 -0.5359757030612857
vn -0.8306482564531037 0.15084269879374174 -0.5359757030612857
vn -0.6608607170847692 0.019282117479819404 0.7502608296850498
vn -0.6608607170847692 0.019282117479819404 0.7502608296850498
vn -0.6608607170847692 0.019282117479819404 0.7502608296850498
vn -0.5605744072441255 0.06443878204589668 0.825593106385548
vn -0.5605744072441255 0.06443878204589668 0.825593106385548
vn -0.5605744072441255 0.06443878204589668 0.825593106385548
vn 0.9320435204046614 0.27748385893765715 0.23301842008895282
vn 0.9320435204046614 0.27748385893765715 0.23301842008895282
vn 0.9320435204046614 0.27748385893765715 0.23301842008895282
vn 0.8329616191275122 0.11244752946599473 -0.5417845459012903
vn 0.8329616191275122 0.11244752946599473 -0.5417845459012903
vn 0.8329616191275122 0.11244752946599473 -0.5417845459012903
vn 0.4547846138771173 0.1331198548487567 -0.880596422446564
vn 0.4547846138771173 0.1331198548487567 -0.880596422446564
vn 0.4547846138771173 0.1331198548487567 -0.880596422446564
vn -0.16315016138128519 0.015783496189094547 0.9864749900982333
vn -0.16315016138128519 0.015783496189094547 0.9864749900982333
vn -0.16315016138128519 0.015783496189094547 0.9864749900982333
vn 0.1281549375189233 0.010452561128067805 0.9916990753022736
vn 0.1281549375189233 0.010452561128067805 0.9916990753022736
vn 0.1281549375189233 0.010452561128067805 0.9916990753022736
vn -0.2939616514439619 -0.030481637278179496 0.9553310511383895
vn -0.2939616514439619 -0.030481637278179496 0.9553310511383895
vn -0.2939616514439619 -0.030481637278179496 0.9553310511383895
vn 0.6407246277351186 0.3086747067768832 0.7029878212386746
vn 0.6407246277351186 0.3086747067768832 0.7029878212386746
vn 0.6407246277351186 0.3086747067768832 0.7029878212386746
vn 0.6312303461834116 0.002335565134620103 0.7755918999014059
vn 0.6312303461834116 0.002335565134620103 0.7755918999014059
vn 0.6312303461834116 0.002335565134620103 0.7755918999014059
vn 0.7736495157594744 0.14014197922907445 0.6179212348049617
vn 0.7736495157594744 0.14014197922907445 0.6179212348049617
vn 0.7736495157594744 0.14014197922907445 0.6179212348049617
vn 0.7550573716956914 -0.0657905916367056 -0.6523495715489408
vn 0.7550573716956914 -0.0657905916367056 -0.6523495715489408
vn 0.7550573716956914 -0.0657905916367056 -0.6523495715489408
vn 0.9875650450518456 -0.0665835070639168 0.1424146003007255
vn 0.9875650450518456 -0.0665835070639168 0.1424146003007255
vn 0.9875650450518456 -0.0665835070639168 0.1424146003007255
vn 0.9989929227994455 -0.04479878408699984 0.002491814790020595
vn 0.9989929227994455 -0.04479878408699984 0.002491814790020595
vn 0.9989929227994455 -0.04479878408699984 0.002491814790020595
vn -0.9760177208354096 0.14870079880863693 -0.15898893373101683
vn -0.9760177208354096 0.14870079880863693 -0.15898893373101683
vn -0.9760177208354096 0.14870079880863693 -0.15898893373101683
vn -0.9760160568723983 0.1487056540827665 -0.15899460736475196
vn -0.9760160568723983 0.1487056540827665 -0.15899460736475196
vn -0.9760160568723983 0.1487056540827665 -0.15899460736475196
vn 0.48695945935488283 0.09429089762919485 0.8683200513457472
vn 0.48695945935488283 0.09429089762919485 0.8683200513457472
vn 0.48695945935488283 0.09429089762919485 0.8683200513457472
vn -0.9281895230130205 -0.3311319077951214 -0.16975237556165385
vn -0.9281895230130205 -0.3311319077951214 -0.16975237556165385
vn -0.9281895230130205 -0.3311319077951214 -0.16975237556165385
vn -0.9145769496911073 -0.07002894595693884 0.3983025857584535
vn -0.9145769496911073 -0.07002894595693884 0.3983025857584535
vn -0.9145769496911073 -0.07002894595693884 0.3983025857584535
vn 0.993984395981623 0.04495750343921151 -0.09986913151500564
vn 0.993984395981623 0.04495750343921151 -0.09986913151500564
vn 0.993984395981623 0.04495750343921151 -0.09986913151500564
vn 0.9939835040980142 0.044967885922115966 -0.09987333386209056
vn 0.9939835040980142 0.044967885922115966 -0.09987333386209056
vn 0.9939835040980142 0.044967885922115966 -0.09987333386209056
vn -0.8038368862962674 -0.2267232102029737 -0.549948039531718
vn -0.8038368862962674 -0.2267232102029737 -0.549948039531718
vn -0.8038368862962674 -0.2267232102029737 -0.549948039531718
vn 0.6649390965912053 -0.11860631992266525 0.7374201914098054
vn 0.6649390965912053 -0.11860631992266525 0.7374201914098054
vn 0.6649390965912053 -0.11860631992266525 0.7374201914098054
vn 0.7357388392273553 -0.6284558393531925 0.25245121991239855
vn 0.7357388392273553 -0.6284558393531925 0.25245121991239855
vn 0.7357388392273553 -0.6284558393531925 0.25245121991239855
vn 0.735739459263408 -0.6284549148617685 0.2524517143314245
vn 0.735739459263408 -0.6284549148617685 0.2524517143314245
vn 0.735739459263408 -0.6284549148617685 0.2524517143314245
vn 0.588938968511232 -0.4138432264709471 0.6941791377397066
vn 0.588938968511232 -0.4138432264709471 0.6941791377397066
vn 0.588938968511232 -0.4138432264709471 0.6941791377397066
vn 0.8388981715234232 -0.4303226715664223 0.33327504579640227
vn 0.8388981715234232 -0.4303226715664223 0.33327504579640227
vn 0.8388981715234232 -0.4303226715664223 0.33327504579640227
vn 0.8835053861649481 -0.29997029295162336 0.3597722278943209
vn 0.8835053861649481 -0.29997029295162336 0.3597722278943209
vn 0.8835053861649481 -0.29997029295162336 0.3597722278943209
vn 0.33093332399157227 -0.6823552672642706 0.6518239212460637
vn 0.33093332399157227 -0.6823552672642706 0.6518239212460637
vn 0.33093332399157227 -0.6823552672642706 0.6518239212460637
vn 0.2228983630190564 -0.10679381290529907 0.9689744069316655
vn 0.2228983630190564 -0.10679381290529907 0.9689744069316655
vn 0.2228983630190564 -0.10679381290529907 0.9689744069316655
vn -0.7342923792484704 -0.05129086209171663 0.6768928639330666
vn -0.7342923792484704 -0.05129086209171663 0.6768928639330666
vn -0.7342923792484704 -0.05129086209171663 0.6768928639330666
vn 0.7564290647892925 -0.35022827454826794 -0.5524085676824171
vn 0.7564290647892925 -0.35022827454826794 -0.5524085676824171
vn 0.7564290647892925 -0.35022827454826794 -0.5524085676824171
vn -0.9384062985928743 -0.3442090488284077 -0.030228289165354964
vn -0.9384062985928743 -0.3442090488284077 -0.030228289165354964
vn -0.9384062985928743 -0.3442090488284077 -0.030228289165354964
vn -0.9384081377909124 -0.3442038898919566 -0.030229937331029157
vn -0.9384081377909124 -0.3442038898919566 -0.030229937331029157
vn -0.9384081377909124 -0.3442038898919566 -0.030229937331029157
vn -0.0976796270755463 0.6572935389673115 0.7472776552836365
vn -0.0976796270755463 0.6572935389673115 0.7472776552836365
vn -0.0976796270755463 0.6572935389673115 0.7472776552836365
vn -0.7020801345231507 -0.3200613576281537 -0.636116508244502
vn -0.7020801345231507 -0.3200613576281537 -0.636116508244502
vn -0.7020801345231507 -0.3200613576281537 -0.636116508244502
vn 0.4631617595543707 -0.8775303263049692 0.12418418136620135
vn 0.4631617595543707 -0.8775303263049692 0.12418418136620135
vn 0.4631617595543707 -0.8775303263049692 0.12418418136620135
vn 0.6813856524276466 -0.44726682765974474 0.5793668764616585
vn 0.6813856524276466 -0.44726682765974474 0.5793668764616585
vn 0.6813856524276466 -0.44726682765974474 0.5793668764616585
vn -0.6222073799457934 0.4860065099885332 0.6137227782881753
vn -0.6222073799457934 0.4860065099885332 0.6137227782881753
vn -0.6222073799457934 0.4860065099885332 0.6137227782881753
vn 0.44875425424538457 -0.711794441120444 -0.5403409043249487
vn 0.44875425424538457 -0.711794441120444 -0.5403409043249487
vn 0.44875425424538457 -0.711794441120444 -0.5403409043249487
vn -0.8976069025931084 -0.4342276719670401 -0.07581673506087368
vn -0.8976069025931084 -0.4342276719670401 -0.07581673506087368
vn -0.8976069025931084 -0.4342276719670401 -0.07581673506087368
vn 0.5612764637478121 -0.4402145962159229 -0.7008422365420074
vn 0.5612764637478121 -0.4402145962159229 -0.7008422365420074
vn 0.5612764637478121 -0.4402145962159229 -0.7008422365420074
vn 0.6004804707518382 -0.4262837284068737 -0.676539272430792
vn 0.6004804707518382 -0.4262837284068737 -0.676539272430792
vn 0.6004804707518382 -0.4262837284068737 -0.676539272430792
vn -0.4380510922801206 -0.6110338993643808 -0.6593548470889958
vn -0.4380510922801206 -0.6110338993643808 -0.6593548470889958
vn -0.4380510922801206 -0.6110338993643808 -0.6593548470889958
vn 0.19875514545535755 -0.9290500897163374 0.31202936232522255
vn 0.19875514545535755 -0.9290500897163374 0.31202936232522255
vn 0.19875514545535755 -0.9290500897163374 0.31202936232522255
vn 0.1987566027786986 -0.9290495392962088 0.3120300728862087
vn 0.1987566027786986 -0.9290495392962088 0.3120300728862087
vn 0.1987566027786986 -0.9290495392962088 0.3120300728862087
vn 0.3108769989280504 -0.9500889292202933 -0.026201490616481346
vn 0.3108769989280504 -0.9500889292202933 -0.026201490616481346
vn 0.3108769989280504 -0.9500889292202933 -0.026201490616481346
vn 0.1513463258993328 -0.9839119316772938 0.0949294492759183
vn 0.1513463258993328 -0.9839119316772938 0.0949294492759183
vn 0.1513463258993328 -0.9839119316772938 0.0949294492759183
vn -0.8904361375129138 0.36431057268857914 0.27276600161750847
vn -0.8904361375129138 0.36431057268857914 0.27276600161750847
vn -0.8904361375129138 0.36431057268857914 0.27276600161750847
vn 0.36593071639469116 -0.5825562638413385 -0.7257567845071025
vn 0.36593071639469116 -0.5825562638413385 -0.7257567845071025
vn 0.36593071639469116 -0.5825562638413385 -0.7257567845071025
vn 0.2746022297925033 -0.53202598401418 -0.8009631500429522
vn 0.2746022297925033 -0.53202598401418 -0.8009631500429522
vn 0.2746022297925033 -0.53202598401418 -0.8009631500429522
vn 0.7861023542418312 -0.4145626126218532 0.4584549365767522
vn 0.7861023542418312 -0.4145626126218532 0.4584549365767522
vn 0.7861023542418312 -0.4145626126218532 0.4584549365767522
vn -0.5086810005931994 -0.8387105486603387 0.1944434498803582
vn -0.5086810005931994 -0.8387105486603387 0.1944434498803582
vn -0.5086810005931994 -0.8387105486603387 0.1944434498803582
vn -0.5086829863124762 -0.838709625927137 0.19444223515837064
vn -0.5086829863124762 -0.838709625927137 0.19444223515837064
vn -0.5086829863124762 -0.838709625927137 0.19444223515837064
vn 0.8786476401087117 -0.47737956843683066 0.00933124699368835
vn 0.8786476401087117 -0.47737956843683066 0.00933124699368835
vn 0.8786476401087117 -0.47737956843683066 0.00933124699368835
vn -0.3295243863932128 -0.9358248981313444 0.1250817285203371
vn -0.3295243863932128 -0.9358248981313444 0.1250817285203371
vn -0.3295243863932128 -0.9358248981313444 0.1250817285203371
vn -0.9457100478114456 -0.3229539044553574 0.0365141214533925
vn -0.9457100478114456 -0.3229539044553574 0.0365141214533925
vn -0.9457100478114456 -0.3229539044553574 0.0365141214533925
vn 0.8819185413263325 -0.4289030690790227 -0.19560634907750019
vn 0.8819185413263325 -0.4289030690790227 -0.19560634907750019
vn 0.8819185413263325 -0.4289030690790227 -0.19560634907750019
vn -0.05328515285968763 -0.5292231553732171 0.8468078555974404
vn -0.05328515285968763 -0.5292231553732171 0.8468078555974404
vn -0.05328515285968763 -0.5292231553732171 0.8468078555974404
vn -0.9751372552612613 -0.09733932830278774 0.19907885012500878
vn -0.9751372552612613 -0.09733932830278774 0.19907885012500878
vn -0.9751372552612613 -0.09733932830278774 0.19907885012500878
vn -0.9347973293277354 -0.28469791482608375 -0.21237007881387907
vn -0.9347973293277354 -0.28469791482608375 -0.21237007881387907
vn -0.9347973293277354 -0.28469791482608375 -0.21237007881387907
vn -0.11285999763606544 -0.7143935308770868 -0.6905827278281409
vn -0.11285999763606544 -0.7143935308770868 -0.6905827278281409
vn -0.11285999763606544 -0.7143935308770868 -0.6905827278281409
vn -0.6217669643097445 0.3603756907004733 0.6953669561067748
vn -0.6217669643097445 0.3603756907004733 0.6953669561067748
vn -0.6217669643097445 0.3603756907004733 0.6953669561067748
vn -0.5297681186489213 -0.3950816760481575 -0.7505039704852741
vn -0.5297681186489213 -0.3950816760481575 -0.7505039704852741
vn -0.5297681186489213 -0.3950816760481575 -0.7505039704852741
vn -0.6822179807877119 -0.6244508854724151 -0.3803152880475012
vn -0.6822179807877119 -0.6244508854724151 -0.3803152880475012
vn -0.6822179807877119 -0.6244508854724151 -0.3803152880475012
vn -0.019518024548833186 -0.7677954308223102 0.6403977069962807
vn -0.019518024548833186 -0.7677954308223102 0.6403977069962807
vn -0.019518024548833186 -0.7677954308223102 0.6403977069962807
vn -0.9385858676156039 -0.3417779469556372 0.047375142079508
vn -0.9385858676156039 -0.3417779469556372 0.047375142079508
vn -0.9385858676156039 -0.3417779469556372 0.047375142079508
vn 0.30712518013377316 0.3042474082871115 0.9017248129437123
vn 0.30712518013377316 0.3042474082871115 0.9017248129437123
vn 0.30712518013377316 0.3042474082871115 0.9017248129437123
vn 0.8468955809304141 -0.23458837122487322 0.4772171110580568
vn 0.8468955809304141 -0.23458837122487322 0.4772171110580568
vn 0.8468955809304141 -0.23458837122487322 0.4772171110580568
vn 0.8709816322655559 -0.4908696107140193 -0.020928963985238032
vn 0.8709816322655559 -0.4908696107140193 -0.020928963985238032
vn 0.8709816322655559 -0.4908696107140193 -0.020928963985238032
vn 0.19292518452503862 -0.8596466760098864 -0.47306179892391764
vn 0.19292518452503862 -0.8596466760098864 -0.47306179892391764
vn 0.19292518452503862 -0.8596466760098864 -0.47306179892391764
vn 0.8445441687894681 -0.38252940615546643 0.3747217639663495
vn 0.8445441687894681 -0.38252940615546643 0.3747217639663495
vn 0.8445441687894681 -0.38252940615546643 0.3747217639663495
vn 0.1969520080525856 -0.9455736534231842 -0.2590373959025729
vn 0.1969520080525856 -0.9455736534231842 -0.2590373959025729
vn 0.1969520080525856 -0.9455736534231842 -0.2590373959025729
vn -0.06541500193535474 -0.8120064677034936 -0.5799710112837473
vn -0.06541500193535474 -0.8120064677034936 -0.5799710112837473
vn -0.06541500193535474 -0.8120064677034936 -0.5799710112837473
vn 0.22172765909949013 -0.8469668212625172 0.4832018717583033
vn 0.22172765909949013 -0.8469668212625172 0.4832018717583033
vn 0.22172765909949013 -0.8469668212625172 0.4832018717583033
vn -0.2386539488503107 -0.9175864685225441 -0.31792981219520694
vn -0.2386539488503107 -0.9175864685225441 -0.31792981219520694
vn -0.2386539488503107 -0.9175864685225441 -0.31792981219520694
vn -0.5313949151934985 -0.7874811533276869 -0.3122384941998513
vn -0.5313949151934985 -0.7874811533276869 -0.3122384941998513
vn -0.5313949151934985 -0.7874811533276869 -0.3122384941998513
vn 0.0900364563954093 -0.9902681988534374 -0.10612412948677824
vn 0.0900364563954093 -0.9902681988534374 -0.10612412948677824
vn 0.0900364563954093 -0.9902681988534374 -0.10612412948677824
vn 0.11590263111096046 -0.9876200440532222 -0.1057034941989516
vn 0.11590263111096046 -0.9876200440532222 -0.1057034941989516
vn 0.11590263111096046 -0.9876200440532222 -0.1057034941989516
vn 0.11637646655333297 -0.9643382410329794 -0.23771469225519137
vn 0.11637646655333297 -0.9643382410329794 -0.23771469225519137
vn 0.11637646655333297 -0.9643382410329794 -0.23771469225519137
vn -0.7311390079198943 -0.6817619834969967 -0.02522595798287475
vn -0.7311390079198943 -0.6817619834969967 -0.02522595798287475
vn -0.7311390079198943 -0.6817619834969967 -0.02522595798287475
vn 0.771213101177557 -0.5386505035567994 0.33924325725075494
vn 0.771213101177557 -0.5386505035567994 0.33924325725075494
vn 0.771213101177557 -0.5386505035567994 0.33924325725075494
vn -0.40655268865106015 -0.913626290156195 0.0013832158263948138
vn -0.40655268865106015 -0.913626290156195 0.0013832158263948138
vn -0.40655268865106015 -0.913626290156195 0.0013832158263948138
vn 0 0 -1
vn 0 0 -1
vn 0 0 -1
vn 0 0 -1
vn 0 0 -1
vn 0 0 -1
vn 0 0 -1
vn 0 0 -1
vn 0 0 -1
vn 0 0 -1
vn 0 0 -1
vn 0 0 -1
vn 0 0 -1
vn 0 0 -1
vn 0 0 -1
vn 0 0 -1
vn 0 0 -1
vn 0 0 -1
vn 0 0 -1
vn 0 0 -1
vn 0 0 -1
vn 0 0 -1
vn 0 0 -1
vn 0 0 -1
vn 0 0 -1
vn 0 0 -1
vn 0 0 -1
vn 0 0 -1
vn 0 0 -1
vn 0 0 -1
vn 0 0 -1
vn 0 0 -1
vn 0 0 -1
vn 0 0 -1
vn 0 0 -1
vn 0 0 -1
vn 0 0 -1
vn 0 0 -1
vn 0 0 -1
vn 0 0 -1
vn 0 0 -1
vn 0 0 -1
vn 0 0 -1
vn 0 0 -1
vn 0 0 -1
vn 0 0 -1
vn 0 0 -1
vn 0 0 -1
vn 0 0 -1
vn 0 0 -1
vn 0 0 -1
vn 0 0 -1
vn 0 0 -1
vn 0 0 -1
vn 0 0 -1
vn 0 0 -1
vn 0 0 -1
vn 0 0 -1
vn 0 0 -1
vn 0 0 -1
f 1//1 2//2 3//3
f 4//4 5//5 6//6
f 7//7 8//8 9//9
f 10//10 11//11 12//12
f 13//13 14//14 15//15
f 16//16 17//17 18//18
f 19//19 20//20 21//21
f 22//22 23//23 24//24
f 25//25 26//26 27//27
f 28//28 29//29 30//30
f 31//31 32//32 33//33
f 34//34 35//35 36//36
f 37//37 38//38 39//39
f 40//40 41//41 42//42
f 43//43 44//44 45//45
f 46//46 47//47 48//48
f 49//49 50//50 51//51
f 52//52 53//53 54//54
f 55//55 56//56 57//57
f 58//58 59//59 60//60
f 61//61 62//62 63//63
f 64//64 65//65 66//66
f 67//67 68//68 69//69
f 70//70 71//71 72//72
f 73//73 74//74 75//75
f 76//76 77//77 78//78
f 79//79 80//80 81//81
f 82//82 83//83 84//84
f 85//85 86//86 87//87
f 88//88 89//89 90//90
f 91//91 92//92 93//93
f 94//94 95//95 96//96
f 97//97 98//98 99//99
f 100//100 101//101 102//102
f 103//103 104//104 105//105
f 106//106 107//107 108//108
f 109//109 110//110 111//111
f 112//112 113//113 114//114
f 115//115 116//116 117//117
f 118//118 119//119 120//120
f 121//121 122//122 123//123
f 124//124 125//125 126//126
f 127//127 128//128 129//129
f 130//130 131//131 132//132
f 133//133 134//134 135//135
f 136//136 137//137 138//138
f 139//139 140//140 141//141
f 142//142 143//143 144//144
f 145//145 146//146 147//147
f 148//148 149//149 150//150
f 151//151 152//152 153//153
f 154//154 155//155 156//156
f 157//157 158//158 159//159
f 160//160 161//161 162//162
f 163//163 164//164 165//165
f 166//166 167//167 168//168
f 169//169 170//170 171//171
f 172//172 173//173 174//174
f 175//175 176//176 177//177
f 178//178 179//179 180//180
f 181//181 182//182 183//183
f 184//184 185//185 186//186
f 187//187 188//188 189//189
f 190//190 191//191 192//192
f 193//193 194//194 195//195
f 196//196 197//197 198//198
f 199//199 200//200 201//201
f 202//202 203//203 204//204
f 205//205 206//206 207//207
f 208//208 209//209 210//210
f 211//211 212//212 213//213
f 214//214 215//215 216//216
f 217//217 218//218 219//219
f 220//220 221//221 222//222
f 223//223 224//224 225//225
f 226//226 227//227 228//228
f 229//229 230//230 231//231
f 232//232 233//233 234//234
f 235//235 236//236 237//237
f 238//238 239//239 240//240
f 241//241 242//242 243//243
f 244//244 245//245 246//246
f 247//247 248//248 249//249
f 250//250 251//251 252//252
f 253//253 254//254 255//255
f 256//256 257//257 258//258
f 259//259 260//260 261//261
f 262//262 263//263 264//264
f 265//265 266//266 267//267
f 268//268 269//269 270//270
f 271//271 272//272 273//273
f 274//274 275//275 276//276
f 277//277 278//278 279//279
f 280//280 281//281 282//282
f 283//283 284//284 285//285
f 286//286 287//287 288//288
f 289//289 290//290 291//291
f 292//292 293//293 294//294
f 295//295 296//296 297//297
f 298//298 299//299 300//300
f 301//301 302//302 303//303
f 304//304 305//305 306//306
f 307//307 308//308 309//309
f 310//310 311//311 312//312
f 313//313 314//314 315//315
f 316//316 317//317 318//318
f 319//319 320//320 321//321
f 322//322 323//323 324//324
f 325//325 326//326 327//327
f 328//328 329//329 330//330
f 331//331 332//332 333//333
f 334//334 335//335 336//336
f 337//337 338//338 339//339
f 340//340 341//341 342//342
f 343//343 344//344 345//345
f 346//346 347//347 348//348
f 349//349 350//350 351//351
f 352//352 353//353 354//354
f 355//355 356//356 357//357
f 358//358 359//359 360//360
f 361//361 362//362 363//363
f 364//364 365//365 366//366
f 367//367 368//368 369//369
f 370//370 371//371 372//372
f 373//373 374//374 375//375
f 376//376 377//377 378//378
f 379//379 380//380 381//381
f 382//382 383//383 384//384
f 385//385 386//386 387//387
f 388//388 389//389 390//390
f 391//391 392//392 393//393
f 394//394 395//395 396//396
f 397//397 398//398 399//399
f 400//400 401//401 402//402
f 403//403 404//404 405//405
f 406//406 407//407 408//408
f 409//409 410//410 411//411
f 412//412 413//413 414//414
f 415//415 416//416 417//417
f 418//418 419//419 420//420
f 421//421 422//422 423//423
f 424//424 425//425 426//426
f 427//427 428//428 429//429
f 430//430 431//431 432//432
f 433//433 434//434 435//435
f 436//436 437//437 438//438
f 439//439 440//440 441//441
f 442//442 443//443 444//444
f 445//445 446//446 447//447
f 448//448 449//449 450//450
f 451//451 452//452 453//453
f 454//454 455//455 456//456
f 457//457 458//458 459//459
f 460//460 461//461 462//462
f 463//463 464//464 465//465
f 466//466 467//467 468//468
f 469//469 470//470 471//471
f 472//472 473//473 474//474
f 475//475 476//476 477//477
f 478//478 479//479 480//480
f 481//481 482//482 483//483
f 484//484 485//485 486//486
f 487//487 488//488 489//489
f 490//490 491//491 492//492
f 493//493 494//494 495//495
f 496//496 497//497 498//498
f 499//499 500//500 501//501
f 502//502 503//503 504//504
f 505//505 506//506 507//507
f 508//508 509//509 510//510
