# File generated by ImageToStl.com - Free Image and 3D model conversion tools

o obj1
v -0.16736136 -0.01252506 4.61645746
v -0.15118451 0.03088317 4.61905289
v -0.15391079 0.03149367 4.62583542
v -0.17008764 -0.01191457 4.62323999
v -0.15781602 0.03258354 4.63194847
v -0.17399286 -0.0108247 4.62935352
v -0.16275008 0.0341109 4.63715744
v -0.17892693 -0.00929733 4.63456202
v -0.16852339 0.03601705 4.64126158
v -0.18470022 -0.00739118 4.63866615
v -0.17491406 0.03822875 4.64410353
v -0.19109091 -0.00517948 4.6415081
v -0.18167654 0.04066099 4.64557362
v -0.19785339 -0.00274724 4.64297867
v -0.18855092 0.04322032 4.64561605
v -0.20472777 -0.00018792 4.64302111
v -0.19527301 0.04580836 4.64422894
v -0.21144986 0.00240013 4.64163399
v -0.20158452 0.04832567 4.64146566
v -0.21776137 0.00491744 4.63887024
v -0.20724289 0.05067551 4.6374321
v -0.22341973 0.00726728 4.63483667
v -0.21203065 0.05276757 4.63228321
v -0.2282075 0.00935934 4.62968779
v -0.21576384 0.05452147 4.62621737
v -0.23194069 0.01111324 4.62362194
v -0.21829896 0.05586979 4.61946726
v -0.23447581 0.01246156 4.61687183
v -0.21953863 0.05676072 4.61229229
v -0.23571548 0.01335249 4.60969687
v -0.21943519 0.05716003 4.60496855
v -0.23561203 0.0137518 4.60237312
v -0.21799259 0.05705237 4.59777689
v -0.23416944 0.01364413 4.59518194
v -0.21526632 0.05644187 4.59099436
v -0.23144317 0.01303364 4.58839941
v -0.2113611 0.055352 4.58488131
v -0.22753794 0.01194377 4.58228588
v -0.20642702 0.05382464 4.57967234
v -0.22260387 0.0104164 4.57707739
v -0.20065372 0.05191848 4.5755682
v -0.21683057 0.00851025 4.57297325
v -0.19426304 0.04970679 4.57272625
v -0.21043988 0.00629855 4.5701313
v -0.18750057 0.04727454 4.57125616
v -0.20367742 0.00386631 4.56866074
v -0.1806262 0.04471522 4.57121372
v -0.19680303 0.00130699 4.5686183
v -0.17390409 0.04212718 4.57260084
v -0.19008094 -0.00128106 4.57000542
v -0.16759259 0.03960986 4.57536411
v -0.18376943 -0.00379837 4.57276917
v -0.16193423 0.03726002 4.57939768
v -0.17811106 -0.00614821 4.57680273
v -0.15714645 0.03516796 4.58454657
v -0.1733233 -0.00824028 4.58195162
v -0.15341327 0.03341407 4.59061241
v -0.16959012 -0.00999417 4.58801746
v -0.15087813 0.03206574 4.59736252
v -0.16705498 -0.01134249 4.59476757
v -0.14963847 0.03117481 4.60453749
v -0.16581532 -0.01223342 4.60194254
v -0.14974192 0.0307755 4.61186123
v -0.16591877 -0.01263273 4.60926628
v 0.86923504 -0.35260075 4.66630936
v 0.93778932 -0.37439954 4.60359859
v 0.88578451 -0.3599728 4.68645763
v 0.88623905 -0.35353214 4.57589436
v 0.31421071 -0.1471231 4.68909025
v 0.26220512 -0.13269605 4.77194881
v 0.22363603 -0.11647293 4.74101019
v 0.82368875 -0.32882237 4.55249023
v 0.8423388 -0.34142214 4.64698553
v 0.30864388 -0.14384091 4.66889095
v 0.20370436 -0.1077389 4.71916342
v 0.76199925 -0.30949348 4.6137228
v 0.71164292 -0.28997043 4.60106182
v 0.7525422 -0.30121994 4.53428459
v 0.97635829 -0.39062262 4.63453722
v 0.19081438 -0.10025084 4.67426252
v 0.19782305 -0.10087527 4.64101887
v 0.67553329 -0.27178544 4.52197742
v 0.97970724 -0.39972869 4.765975
v 0.8913511 -0.36325493 4.70665693
v 1.00217128 -0.40622023 4.73452806
v 0.43936712 -0.18389156 4.52394342
v 0.39409357 -0.17171748 4.60252428
v 0.36902916 -0.15848802 4.53747749
v 0.80612981 -0.32686663 4.62922907
v 0.48865044 -0.20600431 4.58660936
v 0.51587802 -0.21197198 4.51670551
v 0.54331559 -0.22624211 4.58436584
v 0.94265127 -0.38761947 4.7944169
v 0.88572145 -0.36232114 4.72613049
v 0.65699613 -0.26904762 4.59173346
v 0.59562153 -0.24165006 4.51604176
v 0.86911154 -0.35720727 4.74413013
v 0.89242709 -0.37035793 4.81875992
v 0.84215951 -0.34810981 4.75996399
v 0.6043728 -0.26544544 4.85950565
v 0.65667963 -0.28085378 4.79118204
v 0.68411636 -0.29512358 4.85884142
v 0.52446115 -0.23531009 4.85356998
v 0.54299903 -0.23804824 4.78381443
v 0.80590165 -0.33537841 4.77302361
v 0.83096528 -0.34860757 4.83806992
v 1.00917995 -0.40684468 4.70128441
v 0.60015899 -0.24752922 4.58609581
v 0.76173085 -0.31950229 4.78280735
v 0.76062721 -0.32320398 4.85160351
v 0.71134472 -0.30109155 4.78893852
v 1.00046408 -0.40157798 4.66752195
v 0.44745219 -0.20587558 4.84126282
v 0.48835224 -0.21712542 4.77448606
v 0.43826431 -0.18759359 4.59274054
v 0.30756718 -0.13673756 4.55678701
v 0.35783553 -0.15898608 4.6155839
v 0.59983623 -0.25956663 4.78945208
v 0.33088362 -0.1498886 4.63141775
v 0.2573432 -0.11947607 4.5811305
v 0.37630558 -0.17827313 4.82305717
v 0.43799597 -0.19760235 4.76182508
v 0.31427366 -0.14477469 4.64941692
v 0.19808945 -0.10086241 4.63914347
v 0.39386535 -0.18022923 4.74631882
v 0.35765618 -0.16567369 4.72856236
v 0.31375533 -0.15356341 4.79965258
v 0.33076018 -0.15449515 4.70923853
v 0.85324764 -0.3955009 4.66374445
v 0.86979711 -0.40287295 4.6838932
v 0.92180192 -0.41729972 4.60103369
v 0.87025166 -0.39643228 4.57332993
v 0.29822317 -0.19002326 4.68652534
v 0.20764852 -0.15937309 4.73844528
v 0.24621761 -0.17559622 4.76938391
v 0.80770123 -0.37172255 4.54992533
v 0.82635128 -0.38432232 4.64442062
v 0.29265639 -0.18674108 4.66632605
v 0.18771684 -0.15063907 4.71659851
v 0.74601173 -0.35239366 4.61115789
v 0.73655468 -0.34412012 4.53171968
v 0.69565541 -0.3328706 4.59849691
v 0.96037078 -0.43352279 4.63197231
v 0.18183556 -0.14377546 4.63845444
v 0.17482686 -0.143151 4.67169809
v 0.65954578 -0.31468561 4.51941252
v 0.96371973 -0.44262886 4.76341057
v 0.98618376 -0.4491204 4.73196316
v 0.87536371 -0.40615511 4.70409203
v 0.42337966 -0.22679174 4.52137899
v 0.35304165 -0.20138817 4.53491259
v 0.37810606 -0.21461767 4.59995937
v 0.7901423 -0.3697668 4.62666416
v 0.47266293 -0.24890448 4.58404446
v 0.52732807 -0.26914227 4.58180094
v 0.49989057 -0.25487211 4.51414108
v 0.92666376 -0.43051964 4.791852
v 0.86973405 -0.40522131 4.72356606
v 0.57963401 -0.28455022 4.51347685
v 0.64100862 -0.31194779 4.58916855
v 0.85312414 -0.40010741 4.74156523
v 0.87643957 -0.41325811 4.81619549
v 0.82617211 -0.39100996 4.75739908
v 0.58838528 -0.30834559 4.85694075
v 0.66812885 -0.33802375 4.85627699
v 0.64069206 -0.32375392 4.78861761
v 0.50847363 -0.27821025 4.85100508
v 0.52701151 -0.28094837 4.78124952
v 0.78991413 -0.37827855 4.7704587
v 0.81497777 -0.39150771 4.83550501
v 0.99319243 -0.44974485 4.69871998
v 0.58417147 -0.29042935 4.5835309
v 0.74574333 -0.36240247 4.78024244
v 0.74463969 -0.36610416 4.84903908
v 0.6953572 -0.34399173 4.78637362
v 0.98447657 -0.44447815 4.66495705
v 0.43146467 -0.24877574 4.83869791
v 0.47236472 -0.26002556 4.77192116
v 0.42227679 -0.23049377 4.59017611
v 0.29157972 -0.17963775 4.55422258
v 0.34184802 -0.20188624 4.61301899
v 0.58384871 -0.30246681 4.78688717
v 0.31489611 -0.19278876 4.62885284
v 0.24135569 -0.16237622 4.5785656
v 0.36031806 -0.22117329 4.82049227
v 0.4220084 -0.24050252 4.75926018
v 0.29828611 -0.18767485 4.64685249
v 0.18210194 -0.14376257 4.63657856
v 0.37787783 -0.22312941 4.74375391
v 0.34166867 -0.20857386 4.72599745
v 0.31477267 -0.19739531 4.7066741
v 0.29776779 -0.19646357 4.79708815
v -0.0282747 -0.0109614 4.54643631
v -0.03501381 -0.00935513 4.56157684
v -0.05681883 -0.00078433 4.55413675
v -0.05119915 -0.00175737 4.53538275
v -0.05761138 -0.0046551 4.62382221
v -0.06637603 -0.00345065 4.65830994
v -0.09166888 0.00631587 4.65261078
v -0.08087627 0.00429737 4.61909866
v -0.0442622 -0.05386157 4.5438714
v -0.06718665 -0.04465754 4.53281784
v -0.2740694 0.07131536 4.59025049
v -0.26622903 0.069849 4.56590509
v -0.09686378 -0.0386028 4.61653376
v -0.07280634 -0.04368449 4.55157232
v -0.26036668 0.03499252 4.51685047
v -0.27784318 0.03868411 4.56404209
v -0.23291162 0.06287628 4.47485209
v -0.24452576 0.0317114 4.47298908
v -0.08236355 -0.04635082 4.65574503
v -0.07359894 -0.04755524 4.62125731
v -0.10765639 -0.03658429 4.65004635
v -0.05100128 -0.0522553 4.55901194
v -0.43523514 0.14048289 4.40240335
v -0.44546348 0.11303663 4.40076256
v -0.24875252 0.06615741 4.51871395
v -0.4645772 0.14662364 4.48259211
v -0.44918585 0.14337248 4.44103146
v -0.45941418 0.11592622 4.43939066
v -0.28568354 0.04015047 4.58838701
v 0.13088581 -0.12374884 4.62107038
v 0.12046587 -0.12223259 4.66066027
v 0.09450829 -0.10945012 4.60865879
v 0.08165288 -0.10729711 4.65278006
v 0.05813092 -0.09515142 4.5962472
v 0.04283993 -0.09236164 4.64489937
v 0.0217535 -0.0808527 4.5838356
v 0.00402699 -0.07742618 4.63701868
v -0.0146239 -0.06655401 4.57142353
v -0.03478597 -0.06249071 4.62913799
v 0.12861729 -0.12781851 4.70328236
v 0.1446048 -0.08491835 4.70584726
v 0.08642113 -0.11152497 4.6937747
v 0.10240865 -0.06862481 4.69633961
v 0.04422492 -0.0952314 4.68426752
v 0.06021243 -0.05233125 4.68683243
v 0.00202878 -0.07893789 4.67475986
v 0.01801631 -0.03603773 4.67732477
v -0.04016739 -0.06264435 4.66525269
v -0.02417983 -0.0197442 4.66781712
v 0.13645336 -0.07933241 4.66322517
v 0.1468733 -0.08084868 4.62363529
v 0.0976404 -0.06439693 4.65534449
v 0.11049587 -0.06654997 4.6112237
v 0.05882749 -0.0494615 4.6474638
v 0.07411841 -0.05225124 4.59881163
v 0.02001452 -0.03452603 4.63958359
v 0.03774099 -0.03795254 4.58640003
v -0.01879841 -0.01959056 4.6317029
v 0.00136362 -0.02365384 4.57398844
v 0.14870849 -0.13063143 4.62509537
v 0.10087621 -0.11181323 4.6084919
v 0.06351006 -0.09707206 4.59484243
v 0.02632213 -0.08217278 4.5774374
v -0.0100915 -0.06748068 4.558671
v 0.16469595 -0.08773124 4.62766027
v 0.11686361 -0.06891303 4.61105633
v 0.07949752 -0.05417187 4.59740686
v 0.04230963 -0.03927261 4.58000231
v 0.00589605 -0.02458052 4.5612359
v -0.47480553 0.11917739 4.48095083
v -1.18269455 0.41424021 4.19343662
v -1.18429708 0.41322142 4.19734478
v -1.17859697 0.41606048 4.19136238
v -1.1796484 0.41323909 4.19119358
v -0.43472916 0.14188458 4.40245962
v -1.17809093 0.41746217 4.19141865
v -0.47148201 0.14791502 4.50403214
v -0.48171034 0.12046877 4.50239134
v -1.18164313 0.4170616 4.19360542
v -1.18234372 0.41846278 4.19765806
v -1.18085122 0.41765589 4.20185041
v -1.18280447 0.41241452 4.20153713
v -1.18113708 0.41846329 4.19366121
v -1.1818378 0.41986448 4.19771433
v 0.61023676 -0.34344405 5.30779982
v 0.61912435 -0.35241154 5.40239429
v 0.63553596 -0.35269773 5.3048811
v 0.56332225 -0.33062977 5.38590002
v 0.22009593 -0.17342442 4.89588308
v 0.2365067 -0.17371027 4.79836941
v 0.18805647 -0.15536219 4.79348135
v 0.50231278 -0.30625141 5.35843372
v 0.57792735 -0.33110136 5.3027482
v 0.20277935 -0.16761546 4.90666103
v 0.15917441 -0.14470339 4.79523087
v 0.49746567 -0.29914647 5.26980686
v 0.45240539 -0.28076226 5.24318361
v 0.43844032 -0.28021321 5.32105017
v 0.66757447 -0.37075964 5.40728235
v 0.12030536 -0.13162853 4.81882191
v 0.10360804 -0.12715499 4.84807634
v 0.37415957 -0.25351587 5.27518654
v 0.75626123 -0.39821765 5.31373692
v 0.65285271 -0.3585068 5.29410315
v 0.75202286 -0.39896682 5.35268736
v 0.20308229 -0.17961921 5.10555315
v 0.22159922 -0.18116333 5.01595688
v 0.16062579 -0.16021153 5.04558039
v 0.53984898 -0.31614381 5.28991938
v 0.28016973 -0.20771131 5.09491587
v 0.25417504 -0.20223349 5.16532707
v 0.31859535 -0.22445679 5.13548613
v 0.74787742 -0.39227438 5.26658678
v 0.66152108 -0.3606478 5.27588081
v 0.40640032 -0.26169786 5.21107244
v 0.31194091 -0.22718532 5.22260571
v 0.66120863 -0.35903865 5.25091362
v 0.72719371 -0.38136548 5.21304989
v 0.65192688 -0.35374117 5.22016239
v 0.54369009 -0.29893649 4.97815847
v 0.53703654 -0.3016654 5.06527758
v 0.60145581 -0.32388836 5.03543663
v 0.48147148 -0.27260599 4.92557716
v 0.44923162 -0.26442432 4.98969173
v 0.63403261 -0.34495881 5.1848073
v 0.69500524 -0.36591029 5.15518332
v 0.73532563 -0.39449328 5.38194227
v 0.36121815 -0.24268584 5.17470741
v 0.60821348 -0.33302924 5.14620829
v 0.65254879 -0.34650266 5.09521055
v 0.5754621 -0.31841087 5.10584831
v 0.70681101 -0.38496894 5.4003768
v 0.41719067 -0.24590863 4.87971401
v 0.40322655 -0.24535994 4.95758057
v 0.2474182 -0.19309288 5.05455589
v 0.12843731 -0.14475633 4.98771381
v 0.20370504 -0.17238103 4.98060179
v 0.49441379 -0.28343636 5.02605677
v 0.19442329 -0.16708352 4.94985008
v 0.10775363 -0.13384746 4.93417692
v 0.35331821 -0.21987045 4.84233046
v 0.3581664 -0.22697578 4.93095732
v 0.19411072 -0.16547437 4.92488337
v 0.1025719 -0.126862 4.84963512
v 0.31578285 -0.20997834 4.9108448
v 0.27770463 -0.19502084 4.89801598
v 0.29230872 -0.19549204 4.81486368
v 0.24539509 -0.1826781 4.89296389
v 0.62622428 -0.3005439 5.31036472
v 0.65152347 -0.30979756 5.30744553
v 0.63511187 -0.30951136 5.4049592
v 0.57930976 -0.28772959 5.38846493
v 0.23608342 -0.13052425 4.89844799
v 0.20404401 -0.11246203 4.79604626
v 0.25249422 -0.13081011 4.80093431
v 0.51830029 -0.26335123 5.36099815
v 0.59391487 -0.28820118 5.30531311
v 0.21876687 -0.12471528 4.90922594
v 0.17516193 -0.10180321 4.79779577
v 0.51345319 -0.2562463 5.27237177
v 0.45442784 -0.23731308 5.32361507
v 0.46839291 -0.23786213 5.24574852
v 0.68356198 -0.32785946 5.40984726
v 0.11959556 -0.08425482 4.85064125
v 0.13629287 -0.08872835 4.82138634
v 0.39014709 -0.21061571 5.27775145
v 0.77224874 -0.35531747 5.31630182
v 0.76801038 -0.35606664 5.35525227
v 0.66884023 -0.31560662 5.29666805
v 0.21906978 -0.13671903 5.10811806
v 0.1766133 -0.11731137 5.04814529
v 0.23758674 -0.13826315 5.01852131
v 0.5558365 -0.27324364 5.29248428
v 0.29615724 -0.16481113 5.09748077
v 0.33458281 -0.18155663 5.13805103
v 0.27016252 -0.15933329 5.16789198
v 0.76386493 -0.3493742 5.26915169
v 0.67750859 -0.31774762 5.27844524
v 0.32792836 -0.18428516 5.22517014
v 0.42238784 -0.2187977 5.21363735
v 0.67719615 -0.31613848 5.25347853
v 0.74318123 -0.33846533 5.2156148
v 0.66791439 -0.31084099 5.22272682
v 0.5596776 -0.25603631 4.98072338
v 0.61744332 -0.28098819 5.03800154
v 0.55302405 -0.25876522 5.06784248
v 0.49745893 -0.22970586 4.92814207
v 0.46521908 -0.22152416 4.99225664
v 0.65002012 -0.30205864 5.18737221
v 0.71099275 -0.32301012 5.15774822
v 0.75131315 -0.35159311 5.3845067
v 0.37720567 -0.19978566 5.17727232
v 0.624201 -0.29012907 5.14877319
v 0.66853631 -0.30360252 5.09777546
v 0.59144962 -0.2755107 5.10841274
v 0.72279853 -0.34206876 5.4029417
v 0.43317819 -0.20300844 4.88227844
v 0.41921407 -0.20245978 4.960145
v 0.26340571 -0.15019271 5.05712032
v 0.14442483 -0.10185616 4.99027872
v 0.21969253 -0.12948085 4.98316669
v 0.51040131 -0.24053623 5.02862167
v 0.21041077 -0.12418336 4.95241499
v 0.12374115 -0.09094729 4.93674183
v 0.36930573 -0.17697027 4.84489536
v 0.37415391 -0.18407562 4.93352175
v 0.21009824 -0.12257421 4.92744827
v 0.11855942 -0.08396183 4.85219955
v 0.33177036 -0.16707818 4.91340923
v 0.29369211 -0.15212068 4.90058088
v 0.26138261 -0.13977794 4.89552879
v 0.3082962 -0.15259187 4.81742859
v -0.12347103 -0.03702978 4.7560811
v -0.11845537 -0.03795135 4.74023104
v -0.13925138 -0.02959752 4.73013115
v -0.14745532 -0.0275978 4.74782133
v -0.09410615 -0.04334726 4.67870665
v -0.07787421 -0.04751833 4.64729309
v -0.10007368 -0.03841701 4.63343906
v -0.11418567 -0.03507977 4.66558456
v -0.10748352 0.00587039 4.75864553
v -0.13146782 0.01530237 4.75038624
v -0.27010468 0.03659827 4.55069923
v -0.28035641 0.03902262 4.57405138
v -0.09819817 0.00782039 4.66814947
v -0.12326388 0.01330265 4.73269606
v -0.2869513 0.07417011 4.62280464
v -0.26874226 0.07018752 4.57591486
v -0.31578344 0.04683341 4.66423607
v -0.3041693 0.07799831 4.66609955
v -0.0618867 -0.00461816 4.649858
v -0.07811869 -0.00044708 4.68127108
v -0.08408617 0.00448316 4.63600349
v -0.1024678 0.00494879 4.74279594
v -0.50971609 0.12665233 4.57354164
v -0.49948776 0.15409859 4.57518244
v -0.29856545 0.04300522 4.62094116
v -0.47851628 0.11977354 4.49411774
v -0.49455252 0.12328088 4.53541279
v -0.48432419 0.15072714 4.53705359
v -0.25849053 0.06776316 4.55256224
v 0.07100326 -0.06473511 4.8270421
v 0.08937496 -0.06941049 4.79072618
v 0.03630902 -0.05079832 4.81019306
v 0.05587621 -0.05561779 4.76883507
v 0.00161487 -0.03686154 4.79334354
v 0.02237749 -0.04182511 4.74694443
v -0.03307936 -0.02292478 4.7764945
v -0.01112124 -0.02803244 4.72505331
v -0.06777355 -0.008988 4.75964499
v -0.04461996 -0.01423975 4.70316219
v 0.12329051 -0.08053699 4.76542377
v 0.10730305 -0.12343718 4.76285887
v 0.08625507 -0.06535324 4.74231052
v 0.07026762 -0.10825343 4.73974562
v 0.04921959 -0.05016945 4.71919727
v 0.03323212 -0.09306964 4.71663284
v 0.01218417 -0.0349857 4.6960845
v -0.00380336 -0.07788585 4.69351959
v -0.02485129 -0.01980192 4.67297125
v -0.04083876 -0.06270212 4.67040634
v 0.07338744 -0.11231063 4.78816128
v 0.05501576 -0.10763529 4.82447767
v 0.03988872 -0.09851797 4.76627064
v 0.0203215 -0.09369847 4.80762815
v 0.00638999 -0.08472529 4.74437952
v -0.01437271 -0.0797617 4.79077864
v -0.02710868 -0.07093264 4.7224884
v -0.04906692 -0.06582493 4.7739296
v -0.06060743 -0.05713994 4.70059729
v -0.0837611 -0.05188815 4.75708008
v 0.08665231 -0.07115026 4.83679771
v 0.04084705 -0.05276793 4.81485033
v 0.00461906 -0.03827148 4.79820013
v -0.03394291 -0.02307666 4.78441763
v -0.072833 -0.00785195 4.77218056
v 0.07066473 -0.1140504 4.83423328
v 0.02485946 -0.09566806 4.81228542
v -0.01136851 -0.08117162 4.79563522
v -0.04993044 -0.06597683 4.78185272
v -0.08882054 -0.05075211 4.76961565
v -0.46828794 0.14721981 4.49575853
v -1.18276381 0.41723683 4.19767427
v -1.18119955 0.4181796 4.19366121
v -1.18231702 0.4136115 4.20161343
v -1.18126559 0.41643289 4.20178223
v -1.18308985 0.41310725 4.19335794
v -1.18381524 0.41441545 4.19750547
v -0.46948788 0.11763847 4.47355175
v -0.45925954 0.14508472 4.47519255
v -1.18010473 0.41212809 4.19112873
v -1.17821455 0.41720045 4.191432
v -0.44867986 0.14477417 4.44108772
v -0.46407121 0.14802533 4.4826479
vn 0.86041 -0.34317 0.37673
vn 0.86041 -0.34317 0.37673
vn 0.77136 -0.32034 0.54989
vn 0.7714 -0.32033 0.54985
vn 0.65273 -0.28519 0.70186
vn 0.6526 -0.28522 0.70197
vn 0.50896 -0.23909 0.82692
vn 0.50893 -0.2391 0.82694
vn 0.34563 -0.18381 0.92019
vn 0.34562 -0.18381 0.9202
vn 0.16885 -0.12145 0.97813
vn 0.169 -0.12146 0.9781
vn -0.01401 -0.05443 0.99842
vn -0.01419 -0.05443 0.99842
vn -0.19663 0.01468 0.98037
vn -0.19667 0.01468 0.98036
vn -0.37154 0.08322 0.92468
vn -0.37178 0.08323 0.92458
vn -0.53239 0.14857 0.83336
vn -0.53245 0.14856 0.83332
vn -0.67258 0.20823 0.71012
vn -0.6727 0.2082 0.71002
vn -0.78704 0.25985 0.5595
vn -0.78697 0.25988 0.55958
vn -0.87121 0.3015 0.38742
vn -0.8712 0.30151 0.38743
vn -0.92189 0.33157 0.20045
vn -0.9219 0.33155 0.20044
vn -0.93714 0.34891 0.00579
vn -0.93714 0.3489 0.00579
vn -0.91639 0.3528 -0.1891
vn -0.91637 0.35284 -0.18913
vn -0.86042 0.34316 -0.37673
vn -0.86041 0.34316 -0.37673
vn -0.77138 0.32033 -0.54988
vn -0.77136 0.32036 -0.54988
vn -0.65269 0.28521 -0.70189
vn -0.65275 0.28516 -0.70185
vn -0.50899 0.23908 -0.8269
vn -0.5088 0.23911 -0.82701
vn -0.34558 0.18381 -0.92021
vn -0.34562 0.1838 -0.9202
vn -0.16889 0.12144 -0.97812
vn -0.169 0.12147 -0.9781
vn 0.01405 0.05444 -0.99842
vn 0.01401 0.05444 -0.99842
vn 0.19669 -0.01467 -0.98036
vn 0.19667 -0.01467 -0.98036
vn 0.37157 -0.08321 -0.92467
vn 0.37163 -0.08324 -0.92464
vn 0.53241 -0.14857 -0.83335
vn 0.53239 -0.14857 -0.83336
vn 0.67263 -0.20823 -0.71008
vn 0.67266 -0.20822 -0.71006
vn 0.78701 -0.25987 -0.55954
vn 0.78704 -0.25985 -0.5595
vn 0.87119 -0.30152 -0.38744
vn 0.87122 -0.30149 -0.3874
vn 0.92188 -0.3316 -0.20046
vn 0.9219 -0.33155 -0.20044
vn 0.34861 0.9356 0.05593
vn 0.34871 0.93556 0.05593
vn 0.34873 0.93555 0.05593
vn 0.34823 0.93574 0.05595
vn 0.34878 0.93553 0.05593
vn 0.34868 0.93557 0.05594
vn 0.34843 0.93566 0.05592
vn 0.34869 0.93557 0.05593
vn 0.34863 0.93559 0.05594
vn 0.34866 0.93558 0.05594
vn 0.34865 0.93558 0.05593
vn 0.34901 0.93545 0.05593
vn 0.34863 0.93559 0.05593
vn 0.34836 0.93569 0.05596
vn 0.34858 0.93561 0.05591
vn 0.34861 0.9356 0.05593
vn 0.34866 0.93558 0.05593
vn 0.3487 0.93556 0.05593
vn 0.34864 0.93559 0.05594
vn 0.34868 0.93557 0.05593
vn 0.34867 0.93558 0.05593
vn 0.34862 0.93559 0.05594
vn 0.34872 0.93556 0.05593
vn 0.34864 0.93559 0.05593
vn 0.34865 0.93558 0.05593
vn 0.34866 0.93558 0.05594
vn 0.34866 0.93558 0.05593
vn 0.34867 0.93558 0.05594
vn 0.34866 0.93558 0.05593
vn 0.34866 0.93558 0.05593
vn 0.93714 -0.34891 -0.00579
vn 0.93715 -0.34887 -0.00579
vn 0.91637 -0.35285 0.18912
vn 0.91637 -0.35284 0.18913
vn -0.34868 -0.93557 -0.05594
vn -0.34872 -0.93556 -0.05592
vn -0.34883 -0.93552 -0.05593
vn -0.34863 -0.93559 -0.05593
vn -0.34875 -0.93555 -0.05592
vn -0.34831 -0.93571 -0.05593
vn -0.34866 -0.93558 -0.05594
vn -0.34864 -0.93559 -0.05593
vn -0.34868 -0.93557 -0.05594
vn -0.34848 -0.93565 -0.05593
vn -0.34875 -0.93555 -0.05592
vn -0.34846 -0.93565 -0.05593
vn -0.34873 -0.93555 -0.05593
vn -0.34862 -0.93559 -0.05594
vn -0.34867 -0.93557 -0.05594
vn -0.34859 -0.9356 -0.05594
vn -0.34867 -0.93558 -0.05593
vn -0.34865 -0.93558 -0.05593
vn -0.34867 -0.93557 -0.05594
vn -0.34863 -0.93559 -0.05594
vn -0.34863 -0.93559 -0.05593
vn -0.34863 -0.93559 -0.05593
vn -0.34867 -0.93557 -0.05593
vn -0.34867 -0.93557 -0.05593
vn -0.34866 -0.93558 -0.05593
vn -0.34866 -0.93558 -0.05593
vn -0.34866 -0.93558 -0.05593
vn -0.34866 -0.93558 -0.05593
vn -0.34866 -0.93558 -0.05593
vn -0.34866 -0.93558 -0.05593
vn -0.34866 -0.93558 -0.05593
vn -0.34866 -0.93558 -0.05593
vn -0.34866 -0.93558 -0.05593
vn -0.34866 -0.93558 -0.05593
vn -0.34866 -0.93558 -0.05593
vn -0.34866 -0.93558 -0.05594
vn -0.34866 -0.93558 -0.05593
vn -0.34865 -0.93558 -0.05593
vn -0.34866 -0.93558 -0.05593
vn -0.34866 -0.93558 -0.05593
vn -0.34866 -0.93558 -0.05593
vn -0.34866 -0.93558 -0.05593
vn -0.34866 -0.93558 -0.05593
vn -0.34866 -0.93558 -0.05593
vn -0.34866 -0.93558 -0.05593
vn -0.34866 -0.93558 -0.05593
vn -0.34866 -0.93558 -0.05593
vn -0.34866 -0.93558 -0.05593
vn -0.34866 -0.93558 -0.05593
vn -0.34866 -0.93558 -0.05593
vn -0.34866 -0.93558 -0.05593
vn -0.34866 -0.93558 -0.05593
vn -0.34866 -0.93558 -0.05593
vn -0.34865 -0.93558 -0.05593
vn -0.34866 -0.93558 -0.05593
vn -0.34866 -0.93558 -0.05593
vn -0.34866 -0.93558 -0.05593
vn -0.34866 -0.93558 -0.05593
vn -0.34866 -0.93558 -0.05593
vn -0.34866 -0.93558 -0.05593
vn -0.34866 -0.93558 -0.05593
vn -0.34866 -0.93558 -0.05593
vn -0.34866 -0.93558 -0.05593
vn -0.34866 -0.93558 -0.05593
vn -0.34866 -0.93558 -0.05593
vn -0.34866 -0.93558 -0.05593
vn -0.34866 -0.93558 -0.05593
vn -0.34866 -0.93558 -0.05593
vn -0.34865 -0.93558 -0.05593
vn -0.34866 -0.93558 -0.05593
vn -0.34866 -0.93558 -0.05593
vn -0.34866 -0.93558 -0.05593
vn -0.34866 -0.93558 -0.05593
vn -0.34865 -0.93558 -0.05593
vn -0.34866 -0.93558 -0.05593
vn -0.34866 -0.93558 -0.05593
vn -0.34866 -0.93558 -0.05593
vn -0.34866 -0.93558 -0.05593
vn -0.34858 -0.93561 -0.05594
vn -0.34866 -0.93558 -0.05593
vn -0.34866 -0.93558 -0.05593
vn -0.34866 -0.93558 -0.05593
vn -0.34866 -0.93558 -0.05593
vn -0.34866 -0.93558 -0.05594
vn -0.34866 -0.93558 -0.05593
vn -0.34866 -0.93558 -0.05593
vn -0.34866 -0.93558 -0.05593
vn -0.34866 -0.93558 -0.05593
vn -0.34866 -0.93558 -0.05593
vn -0.34866 -0.93558 -0.05593
vn -0.34867 -0.93558 -0.05594
vn -0.34866 -0.93558 -0.05593
vn 0.34866 0.93558 0.05593
vn 0.34866 0.93558 0.05593
vn 0.34866 0.93558 0.05593
vn 0.34866 0.93558 0.05593
vn 0.34865 0.93558 0.05593
vn 0.34866 0.93558 0.05593
vn 0.34866 0.93558 0.05593
vn 0.34866 0.93558 0.05593
vn 0.34865 0.93558 0.05593
vn 0.34865 0.93558 0.05593
vn 0.34866 0.93558 0.05593
vn 0.34866 0.93558 0.05593
vn 0.34866 0.93558 0.05593
vn 0.34866 0.93558 0.05593
vn 0.34866 0.93558 0.05593
vn 0.34866 0.93558 0.05593
vn 0.34866 0.93558 0.05593
vn 0.34866 0.93558 0.05593
vn 0.34865 0.93558 0.05593
vn 0.34866 0.93558 0.05593
vn 0.34866 0.93558 0.05593
vn 0.34867 0.93558 0.05593
vn 0.34866 0.93558 0.05593
vn 0.34866 0.93558 0.05593
vn 0.34866 0.93558 0.05593
vn 0.34866 0.93558 0.05594
vn 0.34866 0.93558 0.05593
vn 0.34866 0.93558 0.05593
vn 0.34866 0.93558 0.05593
vn 0.34866 0.93558 0.05593
vn 0.34866 0.93558 0.05593
vn 0.34866 0.93558 0.05593
vn 0.34866 0.93558 0.05593
vn 0.34866 0.93558 0.05593
vn 0.34866 0.93558 0.05593
vn 0.34866 0.93558 0.05593
vn 0.34866 0.93558 0.05593
vn 0.34866 0.93558 0.05593
vn 0.34866 0.93558 0.05593
vn 0.34866 0.93558 0.05593
vn 0.34866 0.93558 0.05593
vn 0.34866 0.93558 0.05593
vn 0.34866 0.93558 0.05593
vn 0.34866 0.93558 0.05593
vn 0.34866 0.93558 0.05594
vn 0.34866 0.93558 0.05593
vn 0.34866 0.93558 0.05593
vn 0.34866 0.93558 0.05593
vn 0.34866 0.93558 0.05593
vn 0.34866 0.93558 0.05593
vn 0.34884 0.93551 0.05596
vn 0.34866 0.93558 0.05593
vn 0.34866 0.93558 0.05593
vn 0.34866 0.93558 0.05593
vn 0.34866 0.93558 0.05593
vn 0.34866 0.93558 0.05593
vn 0.34866 0.93558 0.05593
vn 0.34865 0.93558 0.05593
vn 0.34866 0.93558 0.05593
vn 0.34866 0.93558 0.05593
vn 0.34866 0.93558 0.05593
vn 0.34866 0.93558 0.05593
vn 0.34865 0.93558 0.05593
vn 0.34866 0.93558 0.05593
vn 0.37331 -0.19337 0.90733
vn 0.37331 -0.19336 0.90733
vn -0.10616 -0.01988 0.99415
vn -0.10615 -0.01988 0.99415
vn 0.62638 -0.27699 0.72864
vn 0.62637 -0.277 0.72865
vn -0.16703 0.0033 0.98595
vn -0.16703 0.0033 0.98595
vn -0.34866 -0.93558 -0.05593
vn -0.34865 -0.93558 -0.05593
vn -0.23321 0.0288 0.972
vn -0.23322 0.0288 0.972
vn -0.34866 -0.93558 -0.05593
vn -0.34866 -0.93558 -0.05593
vn -0.31021 0.05888 0.94884
vn -0.31022 0.05888 0.94884
vn -0.40113 0.09502 0.91108
vn -0.40113 0.09502 0.91108
vn -0.40648 0.09715 0.90848
vn -0.40644 0.09716 0.9085
vn 0.67868 -0.21087 -0.70351
vn 0.6787 -0.21087 -0.70349
vn -0.53511 0.14972 0.83141
vn -0.5351 0.14971 0.83142
vn 0.57366 -0.16584 -0.80213
vn 0.57367 -0.16583 -0.80212
vn -0.71089 0.2251 0.66631
vn -0.71092 0.2251 0.66627
vn 0.43596 -0.10906 -0.89333
vn 0.43595 -0.10906 -0.89334
vn -0.89975 0.31739 0.29953
vn -0.89974 0.3174 0.29953
vn 0.3269 -0.06546 -0.94279
vn 0.32689 -0.06547 -0.94279
vn -0.89525 0.35011 -0.2756
vn -0.89524 0.35012 -0.27561
vn 0.23678 -0.03018 -0.97109
vn 0.23679 -0.03018 -0.97109
vn -0.6616 0.28796 -0.69236
vn -0.66163 0.28795 -0.69234
vn 0.15787 0.0002 -0.98746
vn 0.1579 0.0002 -0.98746
vn -0.43937 0.21589 -0.87198
vn -0.43943 0.21588 -0.87195
vn 0.08456 0.02804 -0.99602
vn 0.08455 0.02804 -0.99602
vn -0.2835 0.16216 -0.94516
vn -0.28348 0.16216 -0.94517
vn 0.01221 0.05513 -0.9984
vn 0.01221 0.05514 -0.9984
vn -0.1724 0.12267 -0.97736
vn -0.17239 0.12267 -0.97736
vn -0.06355 0.08314 -0.99451
vn -0.06359 0.08314 -0.99451
vn -0.08715 0.09179 -0.99196
vn -0.0872 0.09178 -0.99195
vn -0.14793 0.11386 -0.98242
vn -0.1479 0.11385 -0.98243
vn -0.90408 0.31998 0.2833
vn -0.90407 0.31999 0.2833
vn -0.01659 0.06583 -0.99769
vn -0.01658 0.06583 -0.99769
vn -0.2478 0.14957 -0.9572
vn -0.24779 0.14957 -0.9572
vn -0.74406 0.24002 0.62351
vn -0.74408 0.24001 0.62349
vn 0.04627 0.04243 -0.99803
vn 0.04626 0.04243 -0.99803
vn -0.37331 0.19337 -0.90733
vn -0.37332 0.19336 -0.90733
vn -0.57368 0.16583 0.80211
vn -0.57369 0.16583 0.80211
vn 0.10613 0.01988 -0.99415
vn 0.10615 0.01988 -0.99415
vn -0.53738 0.24844 -0.80592
vn -0.53738 0.24845 -0.80592
vn -0.43595 0.10906 0.89334
vn -0.43594 0.10905 0.89334
vn 0.16703 -0.0033 -0.98595
vn 0.16703 -0.0033 -0.98595
vn -0.74149 0.31186 -0.59408
vn -0.74152 0.31185 -0.59406
vn -0.3269 0.06546 0.94279
vn -0.32691 0.06547 0.94279
vn 0.23321 -0.0288 -0.972
vn 0.23323 -0.0288 -0.97199
vn -0.91427 0.35263 -0.19938
vn -0.91427 0.35264 -0.19938
vn -0.23679 0.03018 0.97109
vn -0.23678 0.03018 0.97109
vn 0.31024 -0.05888 -0.94883
vn 0.31023 -0.05888 -0.94884
vn 0.89525 -0.35011 0.2756
vn 0.89525 -0.3501 0.27559
vn -0.15789 -0.0002 0.98746
vn -0.15788 -0.0002 0.98746
vn 0.40647 -0.09716 -0.90848
vn 0.40644 -0.09716 -0.9085
vn 0.43937 -0.21588 0.87198
vn 0.43941 -0.21588 0.87196
vn -0.08456 -0.02804 0.99602
vn -0.08455 -0.02804 0.99602
vn 0.53508 -0.14971 -0.83143
vn 0.53512 -0.14971 -0.83141
vn 0.28349 -0.16216 0.94517
vn 0.28351 -0.16216 0.94516
vn -0.01221 -0.05513 0.9984
vn -0.01221 -0.05514 0.9984
vn 0.7109 -0.2251 -0.6663
vn 0.71093 -0.22509 -0.66626
vn 0.17237 -0.12268 0.97736
vn 0.17239 -0.12268 0.97736
vn 0.06356 -0.08314 0.99451
vn 0.06357 -0.08314 0.99451
vn 0.89975 -0.31739 -0.29952
vn 0.89975 -0.31739 -0.29953
vn 0.08715 -0.09179 0.99196
vn 0.08719 -0.09179 0.99195
vn 0.14791 -0.11386 0.98242
vn 0.14791 -0.11385 0.98243
vn 0.66163 -0.28795 0.69234
vn 0.6616 -0.28795 0.69237
vn 0.01658 -0.06582 0.99769
vn 0.0166 -0.06583 0.99769
vn 0.2478 -0.14956 0.9572
vn 0.2478 -0.14957 0.95719
vn -0.04625 -0.04243 0.99803
vn -0.04627 -0.04242 0.99803
vn -0.32119 -0.94587 -0.04647
vn -0.32118 -0.94588 -0.04646
vn 0.37544 0.92444 0.06672
vn 0.37543 0.92445 0.06672
vn -0.29819 0.05415 0.95297
vn -0.29818 0.05415 0.95297
vn 0.34867 0.93558 0.05593
vn 0.34866 0.93558 0.05593
vn 0.34866 0.93558 0.05593
vn 0.34867 0.93558 0.05593
vn -0.34867 -0.93558 -0.05593
vn -0.34866 -0.93558 -0.05593
vn 0.21213 -0.02065 -0.97702
vn 0.21214 -0.02067 -0.97702
vn 0.34866 0.93558 0.05593
vn 0.34866 0.93558 0.05593
vn -0.31566 0.06103 0.94691
vn -0.31567 0.06103 0.9469
vn -0.34106 -0.93855 -0.05289
vn -0.34107 -0.93855 -0.05289
vn 0.35625 0.93253 0.0589
vn 0.35625 0.93253 0.0589
vn -0.3212 -0.94584 -0.04717
vn -0.32135 -0.94588 -0.0453
vn 0.30481 -0.05676 -0.95072
vn 0.30482 -0.05675 -0.95072
vn 0.3758 0.92439 0.06535
vn 0.37582 0.92439 0.06535
vn 0.37618 0.92428 0.06477
vn 0.37548 0.92444 0.06645
vn -0.32155 -0.94582 -0.04509
vn -0.32155 -0.94582 -0.0451
vn 0.34865 0.93558 0.05593
vn 0.34866 0.93558 0.05594
vn 0.34867 0.93558 0.05593
vn 0.34866 0.93558 0.05593
vn 0.34866 0.93558 0.05593
vn 0.34866 0.93558 0.05593
vn 0.34866 0.93558 0.05593
vn 0.34866 0.93558 0.05593
vn 0.34866 0.93558 0.05593
vn 0.34866 0.93558 0.05593
vn 0.34866 0.93558 0.05593
vn 0.34866 0.93558 0.05593
vn 0.21217 -0.02065 -0.97701
vn 0.21215 -0.02065 -0.97702
vn 0.21217 -0.02065 -0.97702
vn 0.21219 -0.02065 -0.97701
vn 0.21215 -0.02065 -0.97702
vn 0.21217 -0.02065 -0.97701
vn 0.21215 -0.02065 -0.97702
vn 0.21215 -0.02065 -0.97702
vn 0.21217 -0.02065 -0.97701
vn 0.21216 -0.02066 -0.97702
vn 0.21216 -0.02066 -0.97702
vn 0.21219 -0.02065 -0.97701
vn -0.34866 -0.93558 -0.05593
vn -0.34866 -0.93558 -0.05593
vn -0.34865 -0.93558 -0.05593
vn -0.34866 -0.93558 -0.05593
vn -0.34866 -0.93558 -0.05593
vn -0.34866 -0.93558 -0.05593
vn -0.34865 -0.93558 -0.05593
vn -0.34866 -0.93558 -0.05593
vn -0.34866 -0.93558 -0.05593
vn -0.34866 -0.93558 -0.05593
vn -0.34866 -0.93558 -0.05593
vn -0.34867 -0.93558 -0.05593
vn 0.34864 0.93559 0.05594
vn 0.34873 0.93556 0.05591
vn 0.34868 0.93557 0.05592
vn 0.34852 0.93563 0.05594
vn 0.34856 0.93561 0.05594
vn 0.34875 0.93554 0.05593
vn 0.34866 0.93558 0.05594
vn 0.34864 0.93559 0.05593
vn 0.34866 0.93558 0.05593
vn 0.34867 0.93558 0.05593
vn 0.34867 0.93558 0.05593
vn 0.34867 0.93558 0.05593
vn 0.34865 0.93558 0.05593
vn 0.34867 0.93557 0.05593
vn 0.34865 0.93558 0.05593
vn 0.34866 0.93558 0.05593
vn 0.34866 0.93558 0.05593
vn 0.34866 0.93558 0.05593
vn 0.34866 0.93558 0.05593
vn 0.34866 0.93558 0.05593
vn 0.34865 0.93558 0.05593
vn 0.34866 0.93558 0.05593
vn 0.34867 0.93557 0.05593
vn 0.34865 0.93558 0.05593
vn -0.30467 0.05669 0.95077
vn -0.30462 0.05669 0.95078
vn -0.30709 0.05764 0.94993
vn -0.30705 0.05765 0.94994
vn -0.32047 0.06292 0.94517
vn -0.3204 0.06292 0.94519
vn -0.39187 0.09131 0.91548
vn -0.39188 0.09131 0.91548
vn -0.42231 0.10354 0.90052
vn -0.42234 0.10354 0.90051
vn -0.36843 0.08193 0.92604
vn -0.36842 0.08193 0.92604
vn -0.34866 -0.93558 -0.05593
vn -0.34865 -0.93558 -0.05593
vn -0.34866 -0.93558 -0.05593
vn -0.34867 -0.93558 -0.05593
vn -0.34866 -0.93558 -0.05593
vn -0.34865 -0.93558 -0.05593
vn -0.34865 -0.93558 -0.05593
vn -0.34866 -0.93558 -0.05593
vn -0.34867 -0.93558 -0.05593
vn -0.34866 -0.93558 -0.05593
vn -0.34867 -0.93558 -0.05593
vn -0.34865 -0.93558 -0.05593
vn -0.34848 -0.93565 -0.05595
vn -0.34884 -0.93551 -0.05592
vn -0.34859 -0.9356 -0.05593
vn -0.34876 -0.93554 -0.05593
vn -0.34881 -0.93552 -0.05592
vn -0.34862 -0.93559 -0.05593
vn -0.34858 -0.93561 -0.05594
vn -0.34867 -0.93557 -0.05594
vn -0.34868 -0.93557 -0.05594
vn -0.34868 -0.93557 -0.05593
vn -0.34866 -0.93558 -0.05593
vn -0.34865 -0.93558 -0.05593
vn 0.36261 0.92991 0.06154
vn 0.24245 0.90989 0.33664
vn -0.25949 0.03902 0.96496
vn -0.25945 0.03897 0.96497
vn -0.25448 0.05309 0.96562
vn -0.25451 0.0531 0.96561
vn 0.35623 0.93254 0.05897
vn 0.35622 0.93254 0.05897
vn -0.34092 -0.93858 -0.05326
vn -0.34092 -0.93858 -0.05326
vn -0.34104 -0.93856 -0.05296
vn -0.34104 -0.93855 -0.05296
vn 0.37156 -0.08318 -0.92467
vn 0.37156 -0.08319 -0.92467
vn 0.35637 0.93251 0.0586
vn 0.35637 0.9325 0.0586
vn 0.52187 -0.24341 0.81756
vn 0.52197 -0.24346 0.81748
vn 0.89519 -0.35009 0.2758
vn 0.89517 -0.35013 0.27581
vn 0.87725 -0.30473 -0.37092
vn 0.8772 -0.30479 -0.37098
vn -0.33573 -0.94055 -0.05147
vn -0.33147 -0.94135 -0.06318
vn 0.90157 -0.33639 0.27207
vn 0.90163 -0.33616 0.27213
vn 0.3646 -0.08042 -0.92768
vn 0.36471 -0.08042 -0.92764
vn 0.36149 0.93042 0.06037
vn 0.36613 0.9293 0.0485
vn 0.36269 0.92988 0.06143
vn 0.35911 0.93048 0.07244
vn 0.34866 0.93558 0.05593
vn 0.34866 0.93558 0.05593
vn 0.34866 0.93558 0.05593
vn 0.34866 0.93558 0.05593
vn 0.34866 0.93558 0.05593
vn 0.34866 0.93558 0.05593
vn 0.34865 0.93558 0.05593
vn 0.34866 0.93558 0.05593
vn 0.34867 0.93558 0.05593
vn 0.34866 0.93558 0.05593
vn 0.34866 0.93558 0.05593
vn 0.34866 0.93558 0.05593
vn 0.34866 0.93558 0.05593
vn 0.34866 0.93558 0.05593
vn 0.34866 0.93558 0.05593
vn 0.34866 0.93558 0.05593
vn 0.34866 0.93558 0.05593
vn 0.34867 0.93558 0.05593
vn 0.34866 0.93558 0.05594
vn 0.34866 0.93558 0.05594
vn 0.34866 0.93558 0.05594
vn 0.34866 0.93558 0.05593
vn 0.34866 0.93558 0.05593
vn 0.34866 0.93558 0.05593
vn 0.34866 0.93558 0.05593
vn 0.34866 0.93558 0.05593
vn 0.34866 0.93558 0.05593
vn 0.34866 0.93558 0.05593
vn 0.34866 0.93558 0.05593
vn 0.34866 0.93558 0.05593
vn 0.34866 0.93558 0.05593
vn 0.34866 0.93558 0.05593
vn 0.34866 0.93558 0.05594
vn 0.34866 0.93558 0.05593
vn 0.34866 0.93558 0.05593
vn 0.34866 0.93558 0.05593
vn 0.34867 0.93558 0.05593
vn 0.34866 0.93558 0.05593
vn 0.34866 0.93558 0.05593
vn 0.34865 0.93558 0.05593
vn 0.34867 0.93558 0.05593
vn 0.34866 0.93558 0.05593
vn 0.34866 0.93558 0.05593
vn 0.34866 0.93558 0.05593
vn 0.34866 0.93558 0.05593
vn 0.34866 0.93558 0.05593
vn 0.34866 0.93558 0.05593
vn 0.34866 0.93558 0.05593
vn 0.34867 0.93558 0.05593
vn 0.34866 0.93558 0.05593
vn 0.34865 0.93558 0.05591
vn 0.34866 0.93558 0.05593
vn 0.34866 0.93558 0.05593
vn 0.34866 0.93558 0.05593
vn 0.34865 0.93558 0.05593
vn 0.34866 0.93558 0.05593
vn 0.34866 0.93558 0.05593
vn 0.34865 0.93558 0.05593
vn 0.34866 0.93558 0.05593
vn 0.34866 0.93558 0.05593
vn 0.34866 0.93558 0.05593
vn 0.34866 0.93558 0.05593
vn 0.34866 0.93558 0.05593
vn 0.34866 0.93558 0.05593
vn -0.34866 -0.93558 -0.05593
vn -0.34866 -0.93558 -0.05593
vn -0.34866 -0.93558 -0.05593
vn -0.34866 -0.93558 -0.05593
vn -0.34866 -0.93558 -0.05593
vn -0.34866 -0.93558 -0.05593
vn -0.34866 -0.93558 -0.05593
vn -0.34866 -0.93558 -0.05593
vn -0.34866 -0.93558 -0.05594
vn -0.34866 -0.93558 -0.05593
vn -0.34866 -0.93558 -0.05593
vn -0.34866 -0.93558 -0.05593
vn -0.34865 -0.93558 -0.05594
vn -0.34866 -0.93558 -0.05593
vn -0.34866 -0.93558 -0.05593
vn -0.34866 -0.93558 -0.05593
vn -0.34867 -0.93558 -0.05593
vn -0.34866 -0.93558 -0.05593
vn -0.34865 -0.93558 -0.05594
vn -0.34866 -0.93558 -0.05593
vn -0.34866 -0.93558 -0.05593
vn -0.34867 -0.93558 -0.05594
vn -0.34866 -0.93558 -0.05593
vn -0.34866 -0.93558 -0.05593
vn -0.34866 -0.93558 -0.05593
vn -0.34867 -0.93558 -0.05593
vn -0.34866 -0.93558 -0.05593
vn -0.34866 -0.93558 -0.05593
vn -0.34866 -0.93558 -0.05593
vn -0.34867 -0.93558 -0.05593
vn -0.34866 -0.93558 -0.05593
vn -0.34866 -0.93558 -0.05593
vn -0.34866 -0.93558 -0.05593
vn -0.34866 -0.93558 -0.05593
vn -0.34866 -0.93558 -0.05593
vn -0.34866 -0.93558 -0.05593
vn -0.34866 -0.93558 -0.05593
vn -0.34866 -0.93558 -0.05593
vn -0.34866 -0.93558 -0.05593
vn -0.34866 -0.93558 -0.05593
vn -0.34866 -0.93558 -0.05593
vn -0.34867 -0.93558 -0.05593
vn -0.34866 -0.93558 -0.05593
vn -0.34866 -0.93558 -0.05593
vn -0.34866 -0.93558 -0.05593
vn -0.34866 -0.93558 -0.05594
vn -0.34867 -0.93558 -0.05593
vn -0.34866 -0.93558 -0.05593
vn -0.34867 -0.93558 -0.05593
vn -0.34866 -0.93558 -0.05593
vn -0.3486 -0.9356 -0.05593
vn -0.34865 -0.93558 -0.05594
vn -0.34866 -0.93558 -0.05593
vn -0.34865 -0.93558 -0.05593
vn -0.34866 -0.93558 -0.05593
vn -0.34866 -0.93558 -0.05593
vn -0.34867 -0.93558 -0.05593
vn -0.34866 -0.93558 -0.05593
vn -0.34866 -0.93558 -0.05593
vn -0.34866 -0.93558 -0.05593
vn -0.34866 -0.93558 -0.05593
vn -0.34866 -0.93558 -0.05593
vn -0.34866 -0.93558 -0.05593
vn -0.34866 -0.93558 -0.05593
vn 0.86781 -0.29971 -0.39634
vn 0.86781 -0.2997 -0.39634
vn 0.57484 -0.16633 -0.80119
vn 0.57484 -0.16633 -0.80119
vn 0.93526 -0.34342 -0.0857
vn 0.93526 -0.34342 -0.0857
vn 0.525 -0.14553 -0.83857
vn 0.52502 -0.14552 -0.83856
vn 0.34866 0.93558 0.05593
vn 0.34866 0.93558 0.05593
vn 0.46755 -0.12191 -0.87552
vn 0.46756 -0.12191 -0.87552
vn 0.34866 0.93558 0.05593
vn 0.34867 0.93558 0.05593
vn 0.39614 -0.09303 -0.91346
vn 0.39618 -0.09303 -0.91345
vn 0.30504 -0.05685 -0.95064
vn 0.30502 -0.05683 -0.95065
vn 0.29945 -0.05465 -0.95255
vn 0.29942 -0.05465 -0.95255
vn 0.03377 -0.07217 0.99682
vn 0.03376 -0.07217 0.99682
vn 0.155 0.00131 -0.98791
vn 0.15499 0.00131 -0.98792
vn -0.10762 -0.01933 0.994
vn -0.10762 -0.01933 0.994
vn -0.08163 0.08979 -0.99261
vn -0.08174 0.08979 -0.9926
vn -0.26797 0.04232 0.9625
vn -0.26798 0.04232 0.9625
vn -0.46017 0.22286 -0.8594
vn -0.46016 0.22286 -0.85941
vn -0.38001 0.08656 0.92092
vn -0.38003 0.08656 0.92092
vn -0.83423 0.33699 -0.43646
vn -0.83423 0.33699 -0.43646
vn -0.46436 0.12061 0.8774
vn -0.46437 0.12059 0.87739
vn -0.93717 0.3472 0.03411
vn -0.93717 0.34721 0.03411
vn -0.53268 0.1487 0.83315
vn -0.53268 0.14871 0.83315
vn -0.89283 0.31339 0.32347
vn -0.89283 0.31339 0.32347
vn -0.59182 0.17349 0.78718
vn -0.59182 0.17349 0.78718
vn -0.82708 0.27906 0.48793
vn -0.82708 0.27905 0.48792
vn -0.64618 0.19673 0.73739
vn -0.64619 0.19672 0.73739
vn -0.7671 0.25057 0.59056
vn -0.7671 0.25057 0.59056
vn -0.69893 0.21978 0.68058
vn -0.69893 0.21978 0.68058
vn -0.71449 0.22669 0.6619
vn -0.71449 0.2267 0.6619
vn -0.75256 0.24389 0.61169
vn -0.75257 0.24388 0.61169
vn -0.47398 0.22748 -0.85064
vn -0.47395 0.22749 -0.85066
vn -0.66672 0.20564 0.71637
vn -0.66673 0.20564 0.71636
vn -0.80892 0.27023 0.52214
vn -0.80892 0.27024 0.52213
vn -0.13393 0.10881 -0.985
vn -0.13398 0.10881 -0.98499
vn -0.62109 0.18594 0.76137
vn -0.62109 0.18594 0.76137
vn -0.86781 0.2997 0.39634
vn -0.8678 0.29971 0.39634
vn 0.1076 0.01933 -0.99401
vn 0.10758 0.01933 -0.99401
vn -0.57484 0.16633 0.80119
vn -0.57484 0.16633 0.80118
vn -0.92101 0.33094 0.20548
vn -0.92101 0.33094 0.20548
vn 0.26799 -0.04232 -0.96249
vn 0.26799 -0.04232 -0.96249
vn -0.525 0.14552 0.83857
vn -0.52502 0.14552 0.83856
vn -0.93098 0.35261 -0.09452
vn -0.93099 0.35261 -0.09452
vn 0.38001 -0.08657 -0.92092
vn 0.38001 -0.08656 -0.92093
vn -0.46755 0.1219 0.87552
vn -0.46756 0.1219 0.87551
vn -0.79811 0.32765 -0.50563
vn -0.79811 0.32766 -0.50563
vn 0.46438 -0.1206 -0.87739
vn 0.46435 -0.1206 -0.8774
vn -0.39616 0.09302 0.91346
vn -0.39615 0.09302 0.91346
vn 0.83424 -0.33698 0.43644
vn 0.83424 -0.33699 0.43644
vn 0.53268 -0.1487 -0.83315
vn 0.53267 -0.1487 -0.83316
vn -0.29945 0.05464 0.95255
vn -0.29946 0.05465 0.95254
vn 0.89283 -0.3134 -0.32348
vn 0.89284 -0.31338 -0.32346
vn 0.59182 -0.1735 -0.78718
vn 0.59183 -0.17349 -0.78717
vn -0.15495 -0.00131 0.98792
vn -0.15498 -0.00131 0.98792
vn 0.82708 -0.27905 -0.48792
vn 0.82707 -0.27906 -0.48794
vn 0.64618 -0.19673 -0.73739
vn 0.64619 -0.19673 -0.73738
vn 0.08167 -0.08977 0.99261
vn 0.08166 -0.08979 0.99261
vn 0.76711 -0.25056 -0.59056
vn 0.76711 -0.25057 -0.59056
vn 0.69894 -0.21978 -0.68057
vn 0.69894 -0.21978 -0.68057
vn 0.46017 -0.22286 0.85941
vn 0.46013 -0.22285 0.85943
vn 0.71449 -0.2267 -0.6619
vn 0.71448 -0.2267 -0.66191
vn 0.75256 -0.24389 -0.61169
vn 0.75257 -0.24388 -0.61168
vn 0.93716 -0.34722 -0.03411
vn 0.93716 -0.34722 -0.03411
vn 0.66674 -0.20564 -0.71636
vn 0.66673 -0.20565 -0.71636
vn 0.80891 -0.27024 -0.52214
vn 0.80891 -0.27024 -0.52214
vn 0.62108 -0.18594 -0.76137
vn 0.62108 -0.18593 -0.76137
vn 0.37463 0.92464 0.06847
vn 0.37461 0.92465 0.06847
vn -0.32174 -0.94578 -0.04461
vn -0.32174 -0.94578 -0.04461
vn 0.40765 -0.09764 -0.9079
vn 0.40765 -0.09763 -0.9079
vn -0.34866 -0.93558 -0.05593
vn -0.34865 -0.93558 -0.05593
vn -0.34864 -0.93559 -0.05594
vn -0.34866 -0.93558 -0.05593
vn 0.34865 0.93558 0.05593
vn 0.34866 0.93558 0.05593
vn -0.48623 0.12953 0.86418
vn -0.48619 0.12954 0.8642
vn -0.34866 -0.93558 -0.05593
vn -0.34866 -0.93558 -0.05593
vn 0.39091 -0.09092 -0.91593
vn 0.39091 -0.09093 -0.91593
vn 0.35618 0.93255 0.05911
vn 0.35617 0.93255 0.05911
vn -0.34115 -0.93853 -0.05269
vn -0.34115 -0.93853 -0.05268
vn 0.37418 0.92479 0.06898
vn 0.37526 0.92446 0.0675
vn -0.40135 0.09511 0.91097
vn -0.40133 0.09511 0.91098
vn -0.32237 -0.94562 -0.04335
vn -0.32235 -0.94563 -0.04335
vn -0.32244 -0.94563 -0.04265
vn -0.32188 -0.94574 -0.04438
vn 0.37525 0.92448 0.0672
vn 0.37525 0.92449 0.0672
vn -0.34866 -0.93558 -0.05593
vn -0.34866 -0.93558 -0.05593
vn -0.34865 -0.93558 -0.05593
vn -0.34867 -0.93558 -0.05593
vn -0.34865 -0.93558 -0.05593
vn -0.34866 -0.93558 -0.05593
vn -0.34865 -0.93558 -0.05593
vn -0.34866 -0.93558 -0.05593
vn -0.34866 -0.93558 -0.05593
vn -0.34866 -0.93558 -0.05593
vn -0.34866 -0.93558 -0.05593
vn -0.34866 -0.93558 -0.05593
vn -0.48622 0.12953 0.86418
vn -0.48622 0.12953 0.86418
vn -0.48622 0.12953 0.86418
vn -0.48621 0.12953 0.86419
vn -0.48622 0.12953 0.86418
vn -0.48621 0.12954 0.86419
vn -0.4862 0.12954 0.86419
vn -0.48621 0.12953 0.86419
vn -0.48622 0.12953 0.86418
vn -0.48622 0.12953 0.86418
vn -0.48621 0.12953 0.86419
vn -0.48623 0.12953 0.86418
vn 0.34867 0.93558 0.05594
vn 0.34866 0.93558 0.05593
vn 0.34865 0.93558 0.05593
vn 0.34866 0.93558 0.05593
vn 0.34866 0.93558 0.05593
vn 0.34866 0.93558 0.05593
vn 0.34866 0.93558 0.05593
vn 0.34866 0.93558 0.05593
vn 0.34866 0.93558 0.05593
vn 0.34866 0.93558 0.05593
vn 0.34866 0.93558 0.05593
vn 0.34865 0.93558 0.05593
vn -0.34855 -0.93562 -0.05593
vn -0.34877 -0.93554 -0.05593
vn -0.34854 -0.93562 -0.05593
vn -0.34868 -0.93557 -0.05593
vn -0.34879 -0.93553 -0.05593
vn -0.34863 -0.93559 -0.05594
vn -0.34873 -0.93555 -0.05594
vn -0.34869 -0.93557 -0.05594
vn -0.34868 -0.93557 -0.05594
vn -0.34867 -0.93557 -0.05593
vn -0.34867 -0.93558 -0.05593
vn -0.34866 -0.93558 -0.05594
vn -0.34866 -0.93558 -0.05593
vn -0.34866 -0.93558 -0.05593
vn -0.34867 -0.93558 -0.05593
vn -0.34866 -0.93558 -0.05593
vn -0.34865 -0.93558 -0.05593
vn -0.34866 -0.93558 -0.05593
vn -0.34867 -0.93557 -0.05593
vn -0.34866 -0.93558 -0.05593
vn -0.34866 -0.93558 -0.05593
vn -0.34865 -0.93558 -0.05593
vn -0.34867 -0.93558 -0.05593
vn -0.34866 -0.93558 -0.05593
vn 0.40149 -0.09517 -0.9109
vn 0.4015 -0.09517 -0.9109
vn 0.39917 -0.09424 -0.91202
vn 0.39916 -0.09423 -0.91202
vn 0.38632 -0.08907 -0.91806
vn 0.38628 -0.08907 -0.91807
vn 0.31468 -0.06063 -0.94726
vn 0.31468 -0.06063 -0.94726
vn 0.28265 -0.04805 -0.95802
vn 0.28265 -0.04805 -0.95802
vn 0.33871 -0.07013 -0.93827
vn 0.33872 -0.07014 -0.93827
vn 0.34866 0.93558 0.05593
vn 0.34866 0.93558 0.05593
vn 0.34866 0.93558 0.05593
vn 0.34867 0.93558 0.05593
vn 0.34866 0.93558 0.05593
vn 0.34867 0.93558 0.05593
vn 0.34865 0.93558 0.05593
vn 0.34866 0.93558 0.05593
vn 0.34867 0.93558 0.05593
vn 0.34867 0.93558 0.05593
vn 0.34867 0.93558 0.05593
vn 0.34866 0.93558 0.05593
vn 0.34856 0.93562 0.05592
vn 0.34867 0.93557 0.05593
vn 0.3486 0.9356 0.05593
vn 0.34876 0.93554 0.05593
vn 0.34855 0.93562 0.05594
vn 0.34877 0.93554 0.05593
vn 0.34866 0.93558 0.05593
vn 0.34866 0.93558 0.05594
vn 0.34863 0.93559 0.05594
vn 0.34865 0.93558 0.05593
vn 0.34866 0.93558 0.05593
vn 0.34867 0.93557 0.05593
vn -0.33474 -0.94098 -0.05007
vn -0.22297 -0.92606 -0.30446
vn 0.44376 -0.11222 -0.88909
vn 0.44369 -0.1122 -0.88913
vn 0.36124 0.93046 0.06125
vn 0.46042 0.86652 -0.19278
vn -0.34112 -0.93854 -0.05275
vn -0.34112 -0.93854 -0.05276
vn 0.35604 0.93257 0.05948
vn 0.35603 0.93258 0.05948
vn 0.35615 0.93255 0.05918
vn 0.35615 0.93255 0.05918
vn -0.33553 0.06888 0.93951
vn -0.33554 0.06888 0.93951
vn -0.34126 -0.93851 -0.05238
vn -0.34126 -0.93851 -0.05238
vn 0.87462 -0.3032 -0.3783
vn 0.87451 -0.30341 -0.3784
vn 0.89755 -0.35048 0.26752
vn 0.89755 -0.3505 0.26749
vn 0.52712 -0.24513 0.81367
vn 0.52713 -0.24512 0.81366
vn 0.36103 0.9305 0.06189
vn 0.3577 0.93121 0.07006
vn 0.36245 0.92994 0.06191
vn 0.37005 0.92784 0.04661
vn -0.34259 0.07167 0.93675
vn -0.34259 0.07166 0.93675
vn -0.33625 -0.94044 -0.04998
vn -0.33944 -0.93971 -0.04155
vn -0.33472 -0.941 -0.04992
vn -0.32818 -0.94239 -0.06475
vn -0.336 -0.94049 -0.05086
vn -0.40874 -0.88207 0.23427
vn -0.33457 -0.94102 -0.05044
vn -0.33771 -0.94045 -0.03878
vn -0.8793 0.33113 -0.34231
vn -0.87927 0.3312 -0.34235
vn 0.52905 -0.22388 0.81853
vn 0.52902 -0.22356 0.81863
vn -0.87643 0.33031 -0.35039
vn -0.87636 0.33046 -0.35041
vn 0.3397 -0.08501 -0.93669
vn 0.3396 -0.08527 -0.9367
f 1//1 2//1 3//1
f 1//2 3//2 4//2
f 4//3 3//3 5//3
f 4//4 5//4 6//4
f 6//5 5//5 7//5
f 6//6 7//6 8//6
f 8//7 7//7 9//7
f 8//8 9//8 10//8
f 10//9 9//9 11//9
f 10//10 11//10 12//10
f 12//11 11//11 13//11
f 12//12 13//12 14//12
f 14//13 13//13 15//13
f 14//14 15//14 16//14
f 16//15 15//15 17//15
f 16//16 17//16 18//16
f 18//17 17//17 19//17
f 18//18 19//18 20//18
f 20//19 19//19 21//19
f 20//20 21//20 22//20
f 22//21 21//21 23//21
f 22//22 23//22 24//22
f 24//23 23//23 25//23
f 24//24 25//24 26//24
f 26//25 25//25 27//25
f 26//26 27//26 28//26
f 28//27 27//27 29//27
f 28//28 29//28 30//28
f 30//29 29//29 31//29
f 30//30 31//30 32//30
f 32//31 31//31 33//31
f 32//32 33//32 34//32
f 34//33 33//33 35//33
f 34//34 35//34 36//34
f 36//35 35//35 37//35
f 36//36 37//36 38//36
f 38//37 37//37 39//37
f 38//38 39//38 40//38
f 40//39 39//39 41//39
f 40//40 41//40 42//40
f 42//41 41//41 43//41
f 42//42 43//42 44//42
f 44//43 43//43 45//43
f 44//44 45//44 46//44
f 46//45 45//45 47//45
f 46//46 47//46 48//46
f 48//47 47//47 49//47
f 48//48 49//48 50//48
f 50//49 49//49 51//49
f 50//50 51//50 52//50
f 52//51 51//51 53//51
f 52//52 53//52 54//52
f 54//53 53//53 55//53
f 54//54 55//54 56//54
f 56//55 55//55 57//55
f 56//56 57//56 58//56
f 58//57 57//57 59//57
f 58//58 59//58 60//58
f 60//59 59//59 61//59
f 60//60 61//60 62//60
f 5//61 3//61 2//61
f 2//62 63//62 61//62
f 61//63 59//63 57//63
f 57//64 55//64 53//64
f 53//65 51//65 49//65
f 49//66 47//66 45//66
f 45//67 43//67 41//67
f 41//68 39//68 37//68
f 37//69 35//69 33//69
f 33//70 31//70 29//70
f 29//71 27//71 25//71
f 25//72 23//72 21//72
f 21//73 19//73 17//73
f 17//74 15//74 13//74
f 13//75 11//75 9//75
f 9//76 7//76 5//76
f 5//77 2//77 61//77
f 61//78 57//78 53//78
f 53//79 49//79 45//79
f 45//80 41//80 37//80
f 37//81 33//81 29//81
f 29//82 25//82 21//82
f 21//83 17//83 13//83
f 13//84 9//84 5//84
f 5//85 61//85 53//85
f 53//86 45//86 37//86
f 37//87 29//87 21//87
f 21//88 13//88 5//88
f 5//89 53//89 37//89
f 37//90 21//90 5//90
f 62//91 61//91 63//91
f 62//92 63//92 64//92
f 64//93 63//93 2//93
f 64//94 2//94 1//94
f 64//95 1//95 4//95
f 4//96 6//96 8//96
f 8//97 10//97 12//97
f 12//98 14//98 16//98
f 16//99 18//99 20//99
f 20//100 22//100 24//100
f 24//101 26//101 28//101
f 28//102 30//102 32//102
f 32//95 34//95 36//95
f 36//96 38//96 40//96
f 40//103 42//103 44//103
f 44//104 46//104 48//104
f 48//105 50//105 52//105
f 52//106 54//106 56//106
f 56//107 58//107 60//107
f 60//108 62//108 64//108
f 64//109 4//109 8//109
f 8//110 12//110 16//110
f 16//111 20//111 24//111
f 24//112 28//112 32//112
f 32//113 36//113 40//113
f 40//114 44//114 48//114
f 48//115 52//115 56//115
f 56//116 60//116 64//116
f 64//117 8//117 16//117
f 16//118 24//118 32//118
f 32//119 40//119 48//119
f 48//120 56//120 64//120
f 64//121 16//121 32//121
f 32//122 48//122 64//122
f 65//123 66//123 67//123
f 68//124 66//124 65//124
f 69//125 70//125 71//125
f 72//126 68//126 73//126
f 69//127 71//127 74//127
f 74//128 71//128 75//128
f 76//129 77//129 78//129
f 67//130 66//130 79//130
f 73//131 68//131 65//131
f 74//132 80//132 81//132
f 72//133 76//133 78//133
f 78//134 77//134 82//134
f 83//135 84//135 85//135
f 86//136 87//136 88//136
f 89//137 76//137 72//137
f 90//138 91//138 92//138
f 93//139 94//139 83//139
f 82//140 95//140 96//140
f 93//141 97//141 94//141
f 98//142 97//142 93//142
f 77//143 95//143 82//143
f 98//144 99//144 97//144
f 100//145 101//145 102//145
f 103//146 104//146 100//146
f 105//147 99//147 106//147
f 84//148 107//148 85//148
f 108//149 92//149 96//149
f 86//150 91//150 90//150
f 109//151 105//151 110//151
f 102//152 111//152 110//152
f 110//153 111//153 109//153
f 110//154 105//154 106//154
f 84//155 79//155 112//155
f 101//156 111//156 102//156
f 113//157 114//157 103//157
f 115//158 87//158 86//158
f 116//159 88//159 117//159
f 118//160 101//160 100//160
f 106//161 99//161 98//161
f 119//162 116//162 117//162
f 100//163 104//163 118//163
f 120//164 116//164 119//164
f 121//165 122//165 113//165
f 114//166 104//166 103//166
f 67//167 79//167 84//167
f 123//168 120//168 119//168
f 122//169 114//169 113//169
f 123//170 124//170 120//170
f 74//171 124//171 123//171
f 125//172 122//172 121//172
f 124//173 74//173 81//173
f 115//174 86//174 90//174
f 126//175 125//175 121//175
f 74//176 75//176 80//176
f 83//177 94//177 84//177
f 84//178 112//178 107//178
f 89//179 72//179 73//179
f 108//180 96//180 95//180
f 126//181 127//181 128//181
f 121//182 127//182 126//182
f 96//183 92//183 91//183
f 127//184 70//184 128//184
f 128//185 70//185 69//185
f 117//186 88//186 87//186
f 129//187 130//187 131//187
f 132//188 129//188 131//188
f 133//189 134//189 135//189
f 136//190 137//190 132//190
f 133//191 138//191 134//191
f 138//192 139//192 134//192
f 140//193 141//193 142//193
f 130//194 143//194 131//194
f 137//195 129//195 132//195
f 138//196 144//196 145//196
f 136//197 141//197 140//197
f 141//198 146//198 142//198
f 147//199 148//199 149//199
f 150//200 151//200 152//200
f 153//201 136//201 140//201
f 154//202 155//202 156//202
f 157//203 147//203 158//203
f 146//204 159//204 160//204
f 157//205 158//205 161//205
f 162//206 157//206 161//206
f 142//207 146//207 160//207
f 162//208 161//208 163//208
f 164//209 165//209 166//209
f 167//210 164//210 168//210
f 169//211 170//211 163//211
f 149//212 148//212 171//212
f 172//213 159//213 155//213
f 150//214 154//214 156//214
f 173//215 174//215 169//215
f 165//216 174//216 175//216
f 174//217 173//217 175//217
f 174//218 170//218 169//218
f 149//219 176//219 143//219
f 166//220 165//220 175//220
f 177//221 167//221 178//221
f 179//222 150//222 152//222
f 180//223 181//223 151//223
f 182//224 164//224 166//224
f 170//225 162//225 163//225
f 183//226 181//226 180//226
f 164//227 182//227 168//227
f 184//228 183//228 180//228
f 185//229 177//229 186//229
f 178//230 167//230 168//230
f 130//231 149//231 143//231
f 187//232 183//232 184//232
f 186//233 177//233 178//233
f 187//234 184//234 188//234
f 138//235 187//235 188//235
f 189//236 185//236 186//236
f 188//237 144//237 138//237
f 179//238 154//238 150//238
f 190//239 185//239 189//239
f 138//240 145//240 139//240
f 147//241 149//241 158//241
f 149//242 171//242 176//242
f 153//243 137//243 136//243
f 172//244 160//244 159//244
f 190//245 191//245 192//245
f 185//246 190//246 192//246
f 159//247 156//247 155//247
f 192//248 191//248 135//248
f 191//249 133//249 135//249
f 181//250 152//250 151//250
f 116//251 120//251 184//251
f 116//252 184//252 180//252
f 118//253 104//253 168//253
f 118//254 168//254 182//254
f 120//255 124//255 188//255
f 120//256 188//256 184//256
f 104//257 114//257 178//257
f 104//258 178//258 168//258
f 193//259 194//259 195//259
f 193//260 195//260 196//260
f 114//261 122//261 186//261
f 114//262 186//262 178//262
f 197//263 198//263 199//263
f 197//264 199//264 200//264
f 122//265 125//265 189//265
f 122//266 189//266 186//266
f 201//267 193//267 196//267
f 201//268 196//268 202//268
f 125//269 126//269 190//269
f 125//270 190//270 189//270
f 75//271 71//271 134//271
f 75//272 134//272 139//272
f 126//273 128//273 191//273
f 126//274 191//274 190//274
f 71//275 70//275 135//275
f 71//276 135//276 134//276
f 128//277 69//277 133//277
f 128//278 133//278 191//278
f 70//279 127//279 192//279
f 70//280 192//280 135//280
f 69//281 74//281 138//281
f 69//282 138//282 133//282
f 127//283 121//283 185//283
f 127//284 185//284 192//284
f 74//285 123//285 187//285
f 74//286 187//286 138//286
f 121//287 113//287 177//287
f 121//288 177//288 185//288
f 123//289 119//289 183//289
f 123//290 183//290 187//290
f 113//291 103//291 167//291
f 113//292 167//292 177//292
f 119//293 117//293 181//293
f 119//294 181//294 183//294
f 103//295 100//295 164//295
f 103//296 164//296 167//296
f 117//297 87//297 152//297
f 117//298 152//298 181//298
f 100//299 102//299 165//299
f 100//300 165//300 164//300
f 87//301 115//301 179//301
f 87//302 179//302 152//302
f 102//303 110//303 174//303
f 102//304 174//304 165//304
f 115//305 90//305 154//305
f 115//306 154//306 179//306
f 110//307 106//307 170//307
f 110//308 170//308 174//308
f 107//309 112//309 176//309
f 107//310 176//310 171//310
f 90//311 92//311 155//311
f 90//312 155//312 154//312
f 106//313 98//313 162//313
f 106//314 162//314 170//314
f 112//315 79//315 143//315
f 112//316 143//316 176//316
f 92//317 108//317 172//317
f 92//318 172//318 155//318
f 98//319 93//319 157//319
f 98//320 157//320 162//320
f 79//321 66//321 131//321
f 79//322 131//322 143//322
f 108//323 95//323 160//323
f 108//324 160//324 172//324
f 93//325 83//325 147//325
f 93//326 147//326 157//326
f 66//327 68//327 132//327
f 66//328 132//328 131//328
f 95//329 77//329 142//329
f 95//330 142//330 160//330
f 83//331 85//331 148//331
f 83//332 148//332 147//332
f 68//333 72//333 136//333
f 68//334 136//334 132//334
f 77//335 76//335 140//335
f 77//336 140//336 142//336
f 85//337 107//337 171//337
f 85//338 171//338 148//338
f 72//339 78//339 141//339
f 72//340 141//340 136//340
f 76//341 89//341 153//341
f 76//342 153//342 140//342
f 84//343 94//343 158//343
f 84//344 158//344 149//344
f 78//345 82//345 146//345
f 78//346 146//346 141//346
f 89//347 73//347 137//347
f 89//348 137//348 153//348
f 97//349 99//349 163//349
f 97//350 163//350 161//350
f 82//351 96//351 159//351
f 82//352 159//352 146//352
f 73//353 65//353 129//353
f 73//354 129//354 137//354
f 99//355 105//355 169//355
f 99//356 169//356 163//356
f 96//357 91//357 156//357
f 96//358 156//358 159//358
f 65//359 67//359 130//359
f 65//360 130//360 129//360
f 105//361 109//361 173//361
f 105//362 173//362 169//362
f 91//363 86//363 150//363
f 91//364 150//364 156//364
f 67//365 84//365 149//365
f 67//366 149//366 130//366
f 109//367 111//367 175//367
f 109//368 175//368 173//368
f 86//369 88//369 151//369
f 86//370 151//370 150//370
f 94//371 97//371 161//371
f 94//372 161//372 158//372
f 111//373 101//373 166//373
f 111//374 166//374 175//374
f 88//375 116//375 180//375
f 88//376 180//376 151//376
f 101//377 118//377 182//377
f 101//378 182//378 166//378
f 200//379 199//379 203//379
f 200//380 203//380 204//380
f 205//381 206//381 207//381
f 205//382 207//382 208//382
f 202//383 196//383 209//383
f 202//384 209//384 210//384
f 211//385 212//385 205//385
f 211//386 205//386 213//386
f 214//387 201//387 202//387
f 214//388 202//388 206//388
f 194//389 197//389 200//389
f 194//390 200//390 195//390
f 198//391 211//391 213//391
f 198//392 213//392 199//392
f 212//393 214//393 206//393
f 212//394 206//394 205//394
f 210//395 209//395 215//395
f 210//396 215//396 216//396
f 217//397 204//397 218//397
f 217//398 218//398 219//398
f 207//399 210//399 216//399
f 207//400 216//400 220//400
f 196//401 195//401 217//401
f 196//402 217//402 209//402
f 199//403 213//403 221//403
f 199//404 221//404 203//404
f 213//405 205//405 208//405
f 213//406 208//406 221//406
f 206//407 202//407 210//407
f 206//408 210//408 207//408
f 195//409 200//409 204//409
f 195//410 204//410 217//410
f 145//411 144//411 222//411
f 145//412 222//412 223//412
f 223//413 222//413 224//413
f 223//414 224//414 225//414
f 225//415 224//415 226//415
f 225//416 226//416 227//416
f 227//417 226//417 228//417
f 227//418 228//418 229//418
f 229//419 228//419 230//419
f 229//420 230//420 231//420
f 231//421 230//421 214//421
f 231//422 214//422 212//422
f 75//423 139//423 232//423
f 75//424 232//424 233//424
f 233//425 232//425 234//425
f 233//426 234//426 235//426
f 235//427 234//427 236//427
f 235//428 236//428 237//428
f 237//429 236//429 238//429
f 237//430 238//430 239//430
f 239//431 238//431 240//431
f 239//432 240//432 241//432
f 241//433 240//433 211//433
f 241//434 211//434 198//434
f 81//435 80//435 242//435
f 81//436 242//436 243//436
f 243//437 242//437 244//437
f 243//438 244//438 245//438
f 245//439 244//439 246//439
f 245//440 246//440 247//440
f 247//441 246//441 248//441
f 247//442 248//442 249//442
f 249//443 248//443 250//443
f 249//444 250//444 251//444
f 251//445 250//445 197//445
f 251//446 197//446 194//446
f 144//447 188//447 252//447
f 144//448 252//448 222//448
f 222//449 252//449 253//449
f 222//450 253//450 224//450
f 224//451 253//451 254//451
f 224//452 254//452 226//452
f 226//453 254//453 255//453
f 226//454 255//454 228//454
f 228//455 255//455 256//455
f 228//456 256//456 230//456
f 230//457 256//457 201//457
f 230//458 201//458 214//458
f 139//459 145//459 223//459
f 139//460 223//460 232//460
f 232//461 223//461 225//461
f 232//462 225//462 234//462
f 234//463 225//463 227//463
f 234//464 227//464 236//464
f 236//465 227//465 229//465
f 236//466 229//466 238//466
f 238//467 229//467 231//467
f 238//468 231//468 240//468
f 240//469 231//469 212//469
f 240//470 212//470 211//470
f 188//471 124//471 257//471
f 188//472 257//472 252//472
f 252//473 257//473 258//473
f 252//474 258//474 253//474
f 253//475 258//475 259//475
f 253//476 259//476 254//476
f 254//477 259//477 260//477
f 254//478 260//478 255//478
f 255//479 260//479 261//479
f 255//480 261//480 256//480
f 256//481 261//481 193//481
f 256//482 193//482 201//482
f 80//483 75//483 233//483
f 80//484 233//484 242//484
f 242//485 233//485 235//485
f 242//486 235//486 244//486
f 244//487 235//487 237//487
f 244//488 237//488 246//488
f 246//489 237//489 239//489
f 246//490 239//490 248//490
f 248//491 239//491 241//491
f 248//492 241//492 250//492
f 250//493 241//493 198//493
f 250//494 198//494 197//494
f 124//495 81//495 243//495
f 124//496 243//496 257//496
f 257//497 243//497 245//497
f 257//498 245//498 258//498
f 258//499 245//499 247//499
f 258//500 247//500 259//500
f 259//501 247//501 249//501
f 259//502 249//502 260//502
f 260//503 249//503 251//503
f 260//504 251//504 261//504
f 261//505 251//505 194//505
f 261//506 194//506 193//506
f 262//507 220//507 263//507
f 262//508 263//508 264//508
f 216//509 215//509 265//509
f 216//510 265//510 266//510
f 265//511 215//511 267//511
f 265//512 267//512 268//512
f 208//513 207//513 220//513
f 208//514 220//514 262//514
f 204//515 203//515 269//515
f 204//516 269//516 218//516
f 209//517 217//517 219//517
f 209//518 219//518 215//518
f 203//519 221//519 270//519
f 203//520 270//520 269//520
f 221//521 208//521 262//521
f 221//522 262//522 270//522
f 265//523 271//523 263//523
f 265//524 263//524 266//524
f 271//525 272//525 264//525
f 271//526 264//526 263//526
f 272//527 273//527 274//527
f 272//528 274//528 264//528
f 218//529 269//529 273//529
f 218//530 273//530 272//530
f 272//531 271//531 275//531
f 272//532 275//532 276//532
f 269//533 270//533 274//533
f 269//534 274//534 273//534
f 270//535 262//535 264//535
f 270//536 264//536 274//536
f 220//537 216//537 266//537
f 220//538 266//538 263//538
f 277//539 278//539 279//539
f 280//540 278//540 277//540
f 281//541 282//541 283//541
f 284//542 280//542 285//542
f 281//543 283//543 286//543
f 286//544 283//544 287//544
f 288//545 289//545 290//545
f 279//546 278//546 291//546
f 285//547 280//547 277//547
f 286//548 292//548 293//548
f 284//549 288//549 290//549
f 290//550 289//550 294//550
f 295//551 296//551 297//551
f 298//552 299//552 300//552
f 301//553 288//553 284//553
f 302//554 303//554 304//554
f 305//555 306//555 295//555
f 294//556 307//556 308//556
f 305//557 309//557 306//557
f 310//558 309//558 305//558
f 289//559 307//559 294//559
f 310//560 311//560 309//560
f 312//561 313//561 314//561
f 315//562 316//562 312//562
f 317//563 311//563 318//563
f 296//564 319//564 297//564
f 320//565 304//565 308//565
f 298//566 303//566 302//566
f 321//567 317//567 322//567
f 314//568 323//568 322//568
f 322//569 323//569 321//569
f 322//570 317//570 318//570
f 296//571 291//571 324//571
f 313//572 323//572 314//572
f 325//573 326//573 315//573
f 327//574 299//574 298//574
f 328//575 300//575 329//575
f 330//576 313//576 312//576
f 318//577 311//577 310//577
f 331//578 328//578 329//578
f 312//579 316//579 330//579
f 332//580 328//580 331//580
f 333//581 334//581 325//581
f 326//582 316//582 315//582
f 279//583 291//583 296//583
f 335//584 332//584 331//584
f 334//585 326//585 325//585
f 335//586 336//586 332//586
f 286//587 336//587 335//587
f 337//588 334//588 333//588
f 336//589 286//589 293//589
f 327//590 298//590 302//590
f 338//591 337//591 333//591
f 286//592 287//592 292//592
f 295//593 306//593 296//593
f 296//594 324//594 319//594
f 301//595 284//595 285//595
f 320//596 308//596 307//596
f 338//597 339//597 340//597
f 333//598 339//598 338//598
f 308//599 304//599 303//599
f 339//600 282//600 340//600
f 340//601 282//601 281//601
f 329//602 300//602 299//602
f 341//603 342//603 343//603
f 344//604 341//604 343//604
f 345//605 346//605 347//605
f 348//606 349//606 344//606
f 345//607 350//607 346//607
f 350//608 351//608 346//608
f 352//609 353//609 354//609
f 342//610 355//610 343//610
f 349//611 341//611 344//611
f 350//612 356//612 357//612
f 348//613 353//613 352//613
f 353//614 358//614 354//614
f 359//615 360//615 361//615
f 362//616 363//616 364//616
f 365//617 348//617 352//617
f 366//618 367//618 368//618
f 369//619 359//619 370//619
f 358//620 371//620 372//620
f 369//621 370//621 373//621
f 374//622 369//622 373//622
f 354//623 358//623 372//623
f 374//624 373//624 375//624
f 376//625 377//625 378//625
f 379//626 376//626 380//626
f 381//627 382//627 375//627
f 361//628 360//628 383//628
f 384//629 371//629 367//629
f 362//630 366//630 368//630
f 385//631 386//631 381//631
f 377//632 386//632 387//632
f 386//633 385//633 387//633
f 386//634 382//634 381//634
f 361//635 388//635 355//635
f 378//636 377//636 387//636
f 389//637 379//637 390//637
f 391//638 362//638 364//638
f 392//639 393//639 363//639
f 394//640 376//640 378//640
f 382//641 374//641 375//641
f 395//642 393//642 392//642
f 376//643 394//643 380//643
f 396//644 395//644 392//644
f 397//645 389//645 398//645
f 390//646 379//646 380//646
f 342//647 361//647 355//647
f 399//648 395//648 396//648
f 398//649 389//649 390//649
f 399//650 396//650 400//650
f 350//651 399//651 400//651
f 401//652 397//652 398//652
f 400//653 356//653 350//653
f 391//654 366//654 362//654
f 402//655 397//655 401//655
f 350//656 357//656 351//656
f 359//657 361//657 370//657
f 361//658 383//658 388//658
f 365//659 349//659 348//659
f 384//660 372//660 371//660
f 402//661 403//661 404//661
f 397//662 402//662 404//662
f 371//663 368//663 367//663
f 404//664 403//664 347//664
f 403//665 345//665 347//665
f 393//666 364//666 363//666
f 328//667 332//667 396//667
f 328//668 396//668 392//668
f 330//669 316//669 380//669
f 330//670 380//670 394//670
f 332//671 336//671 400//671
f 332//672 400//672 396//672
f 316//673 326//673 390//673
f 316//674 390//674 380//674
f 405//675 406//675 407//675
f 405//676 407//676 408//676
f 326//677 334//677 398//677
f 326//678 398//678 390//678
f 409//679 410//679 411//679
f 409//680 411//680 412//680
f 334//681 337//681 401//681
f 334//682 401//682 398//682
f 413//683 405//683 408//683
f 413//684 408//684 414//684
f 337//685 338//685 402//685
f 337//686 402//686 401//686
f 287//687 283//687 346//687
f 287//688 346//688 351//688
f 338//689 340//689 403//689
f 338//690 403//690 402//690
f 283//691 282//691 347//691
f 283//692 347//692 346//692
f 340//693 281//693 345//693
f 340//694 345//694 403//694
f 282//695 339//695 404//695
f 282//696 404//696 347//696
f 281//697 286//697 350//697
f 281//698 350//698 345//698
f 339//699 333//699 397//699
f 339//700 397//700 404//700
f 286//701 335//701 399//701
f 286//702 399//702 350//702
f 333//703 325//703 389//703
f 333//704 389//704 397//704
f 335//705 331//705 395//705
f 335//706 395//706 399//706
f 325//707 315//707 379//707
f 325//708 379//708 389//708
f 331//709 329//709 393//709
f 331//710 393//710 395//710
f 315//711 312//711 376//711
f 315//712 376//712 379//712
f 329//713 299//713 364//713
f 329//714 364//714 393//714
f 312//715 314//715 377//715
f 312//716 377//716 376//716
f 299//717 327//717 391//717
f 299//718 391//718 364//718
f 314//719 322//719 386//719
f 314//720 386//720 377//720
f 327//721 302//721 366//721
f 327//722 366//722 391//722
f 322//723 318//723 382//723
f 322//724 382//724 386//724
f 319//725 324//725 388//725
f 319//726 388//726 383//726
f 302//727 304//727 367//727
f 302//728 367//728 366//728
f 318//729 310//729 374//729
f 318//730 374//730 382//730
f 324//731 291//731 355//731
f 324//732 355//732 388//732
f 304//733 320//733 384//733
f 304//734 384//734 367//734
f 310//735 305//735 369//735
f 310//736 369//736 374//736
f 291//737 278//737 343//737
f 291//738 343//738 355//738
f 320//739 307//739 372//739
f 320//740 372//740 384//740
f 305//741 295//741 359//741
f 305//742 359//742 369//742
f 278//743 280//743 344//743
f 278//744 344//744 343//744
f 307//745 289//745 354//745
f 307//746 354//746 372//746
f 295//747 297//747 360//747
f 295//748 360//748 359//748
f 280//749 284//749 348//749
f 280//750 348//750 344//750
f 289//751 288//751 352//751
f 289//752 352//752 354//752
f 297//753 319//753 383//753
f 297//754 383//754 360//754
f 284//755 290//755 353//755
f 284//756 353//756 348//756
f 288//757 301//757 365//757
f 288//758 365//758 352//758
f 296//759 306//759 370//759
f 296//760 370//760 361//760
f 290//761 294//761 358//761
f 290//762 358//762 353//762
f 301//763 285//763 349//763
f 301//764 349//764 365//764
f 309//765 311//765 375//765
f 309//766 375//766 373//766
f 294//767 308//767 371//767
f 294//768 371//768 358//768
f 285//769 277//769 341//769
f 285//770 341//770 349//770
f 311//771 317//771 381//771
f 311//772 381//772 375//772
f 308//773 303//773 368//773
f 308//774 368//774 371//774
f 277//775 279//775 342//775
f 277//776 342//776 341//776
f 317//777 321//777 385//777
f 317//778 385//778 381//778
f 303//779 298//779 362//779
f 303//780 362//780 368//780
f 279//781 296//781 361//781
f 279//782 361//782 342//782
f 321//783 323//783 387//783
f 321//784 387//784 385//784
f 298//785 300//785 363//785
f 298//786 363//786 362//786
f 306//787 309//787 373//787
f 306//788 373//788 370//788
f 323//789 313//789 378//789
f 323//790 378//790 387//790
f 300//791 328//791 392//791
f 300//792 392//792 363//792
f 313//793 330//793 394//793
f 313//794 394//794 378//794
f 412//795 411//795 415//795
f 412//796 415//796 416//796
f 417//797 418//797 419//797
f 417//798 419//798 420//798
f 414//799 408//799 421//799
f 414//800 421//800 422//800
f 423//801 424//801 417//801
f 423//802 417//802 425//802
f 426//803 413//803 414//803
f 426//804 414//804 418//804
f 406//805 409//805 412//805
f 406//806 412//806 407//806
f 410//807 423//807 425//807
f 410//808 425//808 411//808
f 424//809 426//809 418//809
f 424//810 418//810 417//810
f 422//811 421//811 427//811
f 422//812 427//812 428//812
f 429//813 416//813 430//813
f 429//814 430//814 431//814
f 419//815 422//815 428//815
f 419//816 428//816 432//816
f 408//817 407//817 429//817
f 408//818 429//818 421//818
f 411//819 425//819 433//819
f 411//820 433//820 415//820
f 425//821 417//821 420//821
f 425//822 420//822 433//822
f 418//823 414//823 422//823
f 418//824 422//824 419//824
f 407//825 412//825 416//825
f 407//826 416//826 429//826
f 357//827 356//827 434//827
f 357//828 434//828 435//828
f 435//829 434//829 436//829
f 435//830 436//830 437//830
f 437//831 436//831 438//831
f 437//832 438//832 439//832
f 439//833 438//833 440//833
f 439//834 440//834 441//834
f 441//835 440//835 442//835
f 441//836 442//836 443//836
f 443//837 442//837 426//837
f 443//838 426//838 424//838
f 287//839 351//839 444//839
f 287//840 444//840 445//840
f 445//841 444//841 446//841
f 445//842 446//842 447//842
f 447//843 446//843 448//843
f 447//844 448//844 449//844
f 449//845 448//845 450//845
f 449//846 450//846 451//846
f 451//847 450//847 452//847
f 451//848 452//848 453//848
f 453//849 452//849 423//849
f 453//850 423//850 410//850
f 293//851 292//851 454//851
f 293//852 454//852 455//852
f 455//853 454//853 456//853
f 455//854 456//854 457//854
f 457//855 456//855 458//855
f 457//856 458//856 459//856
f 459//857 458//857 460//857
f 459//858 460//858 461//858
f 461//859 460//859 462//859
f 461//860 462//860 463//860
f 463//861 462//861 409//861
f 463//862 409//862 406//862
f 356//863 400//863 464//863
f 356//864 464//864 434//864
f 434//865 464//865 465//865
f 434//866 465//866 436//866
f 436//867 465//867 466//867
f 436//868 466//868 438//868
f 438//869 466//869 467//869
f 438//870 467//870 440//870
f 440//871 467//871 468//871
f 440//872 468//872 442//872
f 442//873 468//873 413//873
f 442//874 413//874 426//874
f 351//875 357//875 435//875
f 351//876 435//876 444//876
f 444//877 435//877 437//877
f 444//878 437//878 446//878
f 446//879 437//879 439//879
f 446//880 439//880 448//880
f 448//881 439//881 441//881
f 448//882 441//882 450//882
f 450//883 441//883 443//883
f 450//884 443//884 452//884
f 452//885 443//885 424//885
f 452//886 424//886 423//886
f 400//887 336//887 469//887
f 400//888 469//888 464//888
f 464//889 469//889 470//889
f 464//890 470//890 465//890
f 465//891 470//891 471//891
f 465//892 471//892 466//892
f 466//893 471//893 472//893
f 466//894 472//894 467//894
f 467//895 472//895 473//895
f 467//896 473//896 468//896
f 468//897 473//897 405//897
f 468//898 405//898 413//898
f 292//899 287//899 445//899
f 292//900 445//900 454//900
f 454//901 445//901 447//901
f 454//902 447//902 456//902
f 456//903 447//903 449//903
f 456//904 449//904 458//904
f 458//905 449//905 451//905
f 458//906 451//906 460//906
f 460//907 451//907 453//907
f 460//908 453//908 462//908
f 462//909 453//909 410//909
f 462//910 410//910 409//910
f 336//911 293//911 455//911
f 336//912 455//912 469//912
f 469//913 455//913 457//913
f 469//914 457//914 470//914
f 470//915 457//915 459//915
f 470//916 459//916 471//916
f 471//917 459//917 461//917
f 471//918 461//918 472//918
f 472//919 461//919 463//919
f 472//920 463//920 473//920
f 473//921 463//921 406//921
f 473//922 406//922 405//922
f 474//923 432//923 475//923
f 474//924 475//924 476//924
f 428//925 427//925 477//925
f 428//926 477//926 478//926
f 431//927 430//927 479//927
f 431//928 479//928 480//928
f 420//929 419//929 432//929
f 420//930 432//930 474//930
f 416//931 415//931 481//931
f 416//932 481//932 430//932
f 421//933 429//933 431//933
f 421//934 431//934 427//934
f 415//935 433//935 482//935
f 415//936 482//936 481//936
f 433//937 420//937 474//937
f 433//938 474//938 482//938
f 477//939 480//939 475//939
f 477//940 475//940 478//940
f 480//941 479//941 476//941
f 480//942 476//942 475//942
f 479//943 483//943 484//943
f 479//944 484//944 476//944
f 430//945 481//945 483//945
f 430//946 483//946 479//946
f 427//947 431//947 480//947
f 427//948 480//948 477//948
f 481//949 482//949 484//949
f 481//950 484//950 483//950
f 482//951 474//951 476//951
f 482//952 476//952 484//952
f 432//953 428//953 478//953
f 432//954 478//954 475//954
f 485//955 486//955 276//955
f 485//956 276//956 275//956
f 267//957 485//957 275//957
f 267//958 275//958 268//958
f 215//959 219//959 485//959
f 215//960 485//960 267//960
f 271//961 265//961 268//961
f 271//962 268//962 275//962
f 219//963 218//963 486//963
f 219//964 486//964 485//964
f 218//965 272//965 276//965
f 218//966 276//966 486//966
# Vertices: 486, normals: 966, texture coordinates: 0, faces: 968

